<?xml version="1.0" encoding="UTF-8"?>
<!-- Title: 11. C:\Users\Uporabnik\AppData\Local\Pajek\data\p1n1 – pop.net (29) -->
<!-- Creator: Pajek 5.19: http://mrvar.fdv.uni-lj.si/pajek -->
<!-- CreationDate: 01-06-2025, 21:32:38 -->
<svg xml:space="preserve" viewBox="0 0 1936 1056" xmlns="http://www.w3.org/2000/svg" xmlns:xlink="http://www.w3.org/1999/xlink" xmlns:inkscape="http://www.inkscape.org/namespaces/inkscape">
<title>11. C:\Users\Uporabnik\AppData\Local\Pajek\data\p1n1 – pop.net (29)</title>
<g inkscape:groupmode="layer" id="PajekSig" inkscape:label="PajekSignature">
<g transform="translate(3 1038)">
<g transform="scale(0.1)">
<g transform="matrix(1 0 0 -1 0 96)">
<path d="M   7.67  49.98 L  31.76  72.76 L  46.91  78.63
         L  57.23  80.49 M  72.86  65.23 L  65.73  83.25
         L  57.06  75.49 L  56.75  68.65 M  76.27  68.03
         L  75.65  84.50 L  93.92  91.02 L 107.24  74.87
         M  80.29  67.72 L  89.28  84.81 L 104.77  81.70
         L 116.23  73.31 L 121.18  59.33 M  56.75  81.08
         L  71.31  64.30"
         style="fill:none; stroke:saddlebrown; stroke-width:5;"/>
<path d="M  86.18  70.21 L  91.45  73.00 L  95.78  69.58
         M  91.14  60.88 L  96.09  62.75 L  98.26  59.33"
         style="fill:none; stroke:saddlebrown; stroke-width:1.5;"/>
<path d="M  81.07  49.08 L  87.81  49.08 L  93.30  54.38
         L  93.30  60.88 L  93.30  67.39 L  87.81  72.69
         L  81.07  72.69 L  74.33  72.69 L  68.83  67.39
         L  68.83  60.88 L  68.83  54.38 L  74.33  49.08
         L  81.07  49.08 z"
         style="fill:maroon; stroke:saddlebrown; stroke-width:1;"/>
<path d="M  54.63  37.53 L  68.53  43.56 L  75.39  55.85
         L  69.90  65.35 L  64.41  72.86 L  48.60  74.06
         L  34.71  68.04 L  20.81  55.02 L  15.95  40.72
         L  17.44  33.22 L  24.92  28.72 L  40.73  30.51
         L  54.63  37.53 z"
         style="fill:maroon; stroke:saddlebrown; stroke-width:1;" />
<path d="M  77.82  50.63 L 103.84  59.33 L 131.10  43.80
         L 139.46  27.95 L 139.15  15.83 M  35.99   5.27
         L  47.15  32.92 L  61.71  50.01 L  70.07  46.90
         L  82.77  45.04 L  83.39  27.02 L  65.42  12.11
         M  68.52  50.63 L  91.14  49.39 L 103.53  43.17
         L 117.16  22.67 L 115.30   8.38"
         style="fill:none; stroke:saddlebrown; stroke-width:5;"/>
<path d="M  41.57  54.98 L  60.16  64.61 M  52.41  66.17
         L  57.99  57.47"
         style="fill:none; stroke:white; stroke-width:5;"/>
</g>
</g>
<animateMotion dur="20s" path="M3 0 L1918 0" begin="120s" fill="freeze"/>
</g>
<g transform="translate(3 1038)">
<g transform="scale(0.1)">
<text x="5" y="140" style="font-family:Brush Script MT;font-size:75px;fill:green;">Pajek</text>
</g>
<animateMotion dur="0.1s" path="M3 0 L1918 0" begin="120s" fill="freeze"/>
</g>
</g>      <!-- Layer Signature -->

<g inkscape:groupmode="layer" id="PajekNet" inkscape:label="PajekNetwork">

<!-- Arc:     1   13 -->
<g transform="translate(1295.44 412.08)">
<g transform="rotate(195.20)">
<path d="M 0 0 L -1.00 2.50 L 5.00 0 L -1.00 -2.50 z" style="fill:rgb(153,153,153)"/>
</g></g>
<line x1="1427.80" y1="448.03" x2="1295.44" y2="412.08" style="stroke-width:1.00;stroke:rgb(153,153,153)"/>
<!-- Arc:     3    2 -->
<g transform="translate(1451.11 328.12)">
<g transform="rotate(344.47)">
<path d="M 0 0 L -1.00 2.50 L 5.00 0 L -1.00 -2.50 z" style="fill:rgb(153,153,153)"/>
</g></g>
<line x1="999.62" y1="453.58" x2="1451.11" y2="328.12" style="stroke-width:1.00;stroke:rgb(153,153,153)"/>
<!-- Arc:     3   21 -->
<g transform="translate(668.75 629.99)">
<g transform="rotate(511.93)">
<path d="M 0 0 L -1.00 2.50 L 5.00 0 L -1.00 -2.50 z" style="fill:rgb(153,153,153)"/>
</g></g>
<line x1="999.62" y1="453.58" x2="668.75" y2="629.99" style="stroke-width:1.00;stroke:rgb(153,153,153)"/>
<!-- Arc:     4    1 -->
<g transform="translate(1425.57 464.23)">
<g transform="rotate(277.64)">
<path d="M 0 0 L -1.00 2.50 L 5.00 0 L -1.00 -2.50 z" style="fill:rgb(153,153,153)"/>
</g></g>
<line x1="1402.59" y1="635.51" x2="1425.57" y2="464.23" style="stroke-width:1.00;stroke:rgb(153,153,153)"/>
<!-- Arc:     4    6 -->
<g transform="translate(1115.71 593.78)">
<g transform="rotate(188.28)">
<path d="M 0 0 L -1.00 2.50 L 5.00 0 L -1.00 -2.50 z" style="fill:rgb(153,153,153)"/>
</g></g>
<line x1="1402.59" y1="635.51" x2="1115.71" y2="593.78" style="stroke-width:1.00;stroke:rgb(153,153,153)"/>
<!-- Arc:     5    3 -->
<g transform="translate(1009.00 448.37)">
<g transform="rotate(511.17)">
<path d="M 0 0 L -1.00 2.50 L 5.00 0 L -1.00 -2.50 z" style="fill:rgb(153,153,153)"/>
</g></g>
<line x1="1307.81" y1="283.86" x2="1009.00" y2="448.37" style="stroke-width:1.00;stroke:rgb(153,153,153)"/>
<!-- Arc:     6   21 -->
<g transform="translate(670.57 635.95)">
<g transform="rotate(534.22)">
<path d="M 0 0 L -1.00 2.50 L 5.00 0 L -1.00 -2.50 z" style="fill:rgb(153,153,153)"/>
</g></g>
<line x1="1104.13" y1="592.08" x2="670.57" y2="635.95" style="stroke-width:1.00;stroke:rgb(153,153,153)"/>
<!-- Arc:     7   21 -->
<g transform="translate(644.81 624.51)">
<g transform="rotate(413.51)">
<path d="M 0 0 L -1.00 2.50 L 5.00 0 L -1.00 -2.50 z" style="fill:rgb(153,153,153)"/>
</g></g>
<line x1="540.55" y1="483.54" x2="644.81" y2="624.51" style="stroke-width:1.00;stroke:rgb(153,153,153)"/>
<!-- Arc:     8    3 -->
<g transform="translate(991.73 446.04)">
<g transform="rotate(403.99)">
<path d="M 0 0 L -1.00 2.50 L 5.00 0 L -1.00 -2.50 z" style="fill:rgb(153,153,153)"/>
</g></g>
<line x1="770.97" y1="232.90" x2="991.73" y2="446.04" style="stroke-width:1.00;stroke:rgb(153,153,153)"/>
<!-- Arc:     9    2 -->
<g transform="translate(1461.20 310.64)">
<g transform="rotate(443.23)">
<path d="M 0 0 L -1.00 2.50 L 5.00 0 L -1.00 -2.50 z" style="fill:rgb(153,153,153)"/>
</g></g>
<line x1="1440.19" y1="133.56" x2="1461.20" y2="310.64" style="stroke-width:1.00;stroke:rgb(153,153,153)"/>
<!-- Arc:     9   10 -->
<g transform="translate(1058.04 224.07)">
<g transform="rotate(526.68)">
<path d="M 0 0 L -1.00 2.50 L 5.00 0 L -1.00 -2.50 z" style="fill:rgb(153,153,153)"/>
</g></g>
<line x1="1440.19" y1="133.56" x2="1058.04" y2="224.07" style="stroke-width:1.00;stroke:rgb(153,153,153)"/>
<!-- Arc:    10   14 -->
<g transform="translate(711.65 388.56)">
<g transform="rotate(514.24)">
<path d="M 0 0 L -1.00 2.50 L 5.00 0 L -1.00 -2.50 z" style="fill:rgb(153,153,153)"/>
</g></g>
<line x1="1047.46" y1="226.51" x2="711.65" y2="388.56" style="stroke-width:1.00;stroke:rgb(153,153,153)"/>
<!-- Arc:    11   14 -->
<g transform="translate(692.94 387.52)">
<g transform="rotate(392.40)">
<path d="M 0 0 L -1.00 2.50 L 5.00 0 L -1.00 -2.50 z" style="fill:rgb(153,153,153)"/>
</g></g>
<line x1="422.24" y1="215.74" x2="692.94" y2="387.52" style="stroke-width:1.00;stroke:rgb(153,153,153)"/>
<!-- Arc:    13    6 -->
<g transform="translate(1111.80 584.22)">
<g transform="rotate(494.41)">
<path d="M 0 0 L -1.00 2.50 L 5.00 0 L -1.00 -2.50 z" style="fill:rgb(153,153,153)"/>
</g></g>
<line x1="1283.61" y1="408.84" x2="1111.80" y2="584.22" style="stroke-width:1.00;stroke:rgb(153,153,153)"/>
<!-- Arc:    14   21 -->
<g transform="translate(657.51 621.67)">
<g transform="rotate(461.03)">
<path d="M 0 0 L -1.00 2.50 L 5.00 0 L -1.00 -2.50 z" style="fill:rgb(153,153,153)"/>
</g></g>
<line x1="702.02" y1="393.27" x2="657.51" y2="621.67" style="stroke-width:1.00;stroke:rgb(153,153,153)"/>
<!-- Arc:    15   21 -->
<g transform="translate(670.60 638.99)">
<g transform="rotate(184.50)">
<path d="M 0 0 L -1.00 2.50 L 5.00 0 L -1.00 -2.50 z" style="fill:rgb(153,153,153)"/>
</g></g>
<line x1="1191.85" y1="679.99" x2="670.60" y2="638.99" style="stroke-width:1.00;stroke:rgb(153,153,153)"/>
<!-- Arc:    16   27 -->
<g transform="translate(753.29 822.93)">
<g transform="rotate(246.00)">
<path d="M 0 0 L -1.00 2.50 L 5.00 0 L -1.00 -2.50 z" style="fill:rgb(153,153,153)"/>
</g></g>
<line x1="833.54" y1="1003.20" x2="753.29" y2="822.93" style="stroke-width:1.00;stroke:rgb(153,153,153)"/>
<!-- Arc:    17   21 -->
<g transform="translate(639.91 630.29)">
<g transform="rotate(386.57)">
<path d="M 0 0 L -1.00 2.50 L 5.00 0 L -1.00 -2.50 z" style="fill:rgb(153,153,153)"/>
</g></g>
<line x1="271.24" y1="445.91" x2="639.91" y2="630.29" style="stroke-width:1.00;stroke:rgb(153,153,153)"/>
<!-- Arc:    17   29 -->
<g transform="translate(234.00 638.62)">
<g transform="rotate(460.94)">
<path d="M 0 0 L -1.00 2.50 L 5.00 0 L -1.00 -2.50 z" style="fill:rgb(153,153,153)"/>
</g></g>
<line x1="271.24" y1="445.91" x2="234.00" y2="638.62" style="stroke-width:1.00;stroke:rgb(153,153,153)"/>
<!-- Arc:    18   19 -->
<g transform="translate(538.49 934.35)">
<g transform="rotate(351.91)">
<path d="M 0 0 L -1.00 2.50 L 5.00 0 L -1.00 -2.50 z" style="fill:rgb(153,153,153)"/>
</g></g>
<line x1="203.94" y1="981.90" x2="538.49" y2="934.35" style="stroke-width:1.00;stroke:rgb(153,153,153)"/>
<!-- Arc:    18   24 -->
<g transform="translate(357.16 816.15)">
<g transform="rotate(312.75)">
<path d="M 0 0 L -1.00 2.50 L 5.00 0 L -1.00 -2.50 z" style="fill:rgb(153,153,153)"/>
</g></g>
<line x1="203.94" y1="981.90" x2="357.16" y2="816.15" style="stroke-width:1.00;stroke:rgb(153,153,153)"/>
<!-- Arc:    19   16 -->
<g transform="translate(817.78 999.23)">
<g transform="rotate(374.31)">
<path d="M 0 0 L -1.00 2.50 L 5.00 0 L -1.00 -2.50 z" style="fill:rgb(153,153,153)"/>
</g></g>
<line x1="554.58" y1="932.08" x2="817.78" y2="999.23" style="stroke-width:1.00;stroke:rgb(153,153,153)"/>
<!-- Arc:    19   21 -->
<g transform="translate(649.15 653.00)">
<g transform="rotate(288.72)">
<path d="M 0 0 L -1.00 2.50 L 5.00 0 L -1.00 -2.50 z" style="fill:rgb(153,153,153)"/>
</g></g>
<line x1="554.58" y1="932.08" x2="649.15" y2="653.00" style="stroke-width:1.00;stroke:rgb(153,153,153)"/>
<!-- Arc:    20   19 -->
<g transform="translate(550.10 916.46)">
<g transform="rotate(433.96)">
<path d="M 0 0 L -1.00 2.50 L 5.00 0 L -1.00 -2.50 z" style="fill:rgb(153,153,153)"/>
</g></g>
<line x1="509.21" y1="774.26" x2="550.10" y2="916.46" style="stroke-width:1.00;stroke:rgb(153,153,153)"/>
<!-- Arc:    20   21 -->
<g transform="translate(642.54 648.73)">
<g transform="rotate(316.73)">
<path d="M 0 0 L -1.00 2.50 L 5.00 0 L -1.00 -2.50 z" style="fill:rgb(153,153,153)"/>
</g></g>
<line x1="509.21" y1="774.26" x2="642.54" y2="648.73" style="stroke-width:1.00;stroke:rgb(153,153,153)"/>
<!-- Arc:    22   21 -->
<g transform="translate(669.95 642.37)">
<g transform="rotate(196.94)">
<path d="M 0 0 L -1.00 2.50 L 5.00 0 L -1.00 -2.50 z" style="fill:rgb(153,153,153)"/>
</g></g>
<line x1="925.65" y1="720.24" x2="669.95" y2="642.37" style="stroke-width:1.00;stroke:rgb(153,153,153)"/>
<!-- Arc:    22   27 -->
<g transform="translate(761.28 800.95)">
<g transform="rotate(513.85)">
<path d="M 0 0 L -1.00 2.50 L 5.00 0 L -1.00 -2.50 z" style="fill:rgb(153,153,153)"/>
</g></g>
<line x1="925.65" y1="720.24" x2="761.28" y2="800.95" style="stroke-width:1.00;stroke:rgb(153,153,153)"/>
<!-- Arc:    23   21 -->
<g transform="translate(638.32 635.33)">
<g transform="rotate(368.33)">
<path d="M 0 0 L -1.00 2.50 L 5.00 0 L -1.00 -2.50 z" style="fill:rgb(153,153,153)"/>
</g></g>
<line x1="379.13" y1="597.38" x2="638.32" y2="635.33" style="stroke-width:1.00;stroke:rgb(153,153,153)"/>
<!-- Arc:    25   21 -->
<g transform="translate(638.32 639.90)">
<g transform="rotate(351.86)">
<path d="M 0 0 L -1.00 2.50 L 5.00 0 L -1.00 -2.50 z" style="fill:rgb(153,153,153)"/>
</g></g>
<line x1="185.64" y1="704.63" x2="638.32" y2="639.90" style="stroke-width:1.00;stroke:rgb(153,153,153)"/>
<!-- Arc:    25   24 -->
<g transform="translate(353.99 796.41)">
<g transform="rotate(388.60)">
<path d="M 0 0 L -1.00 2.50 L 5.00 0 L -1.00 -2.50 z" style="fill:rgb(153,153,153)"/>
</g></g>
<line x1="185.64" y1="704.63" x2="353.99" y2="796.41" style="stroke-width:1.00;stroke:rgb(153,153,153)"/>
<!-- Arc:    26   11 -->
<g transform="translate(416.84 231.66)">
<g transform="rotate(288.65)">
<path d="M 0 0 L -1.00 2.50 L 5.00 0 L -1.00 -2.50 z" style="fill:rgb(153,153,153)"/>
</g></g>
<line x1="355.81" y1="412.50" x2="416.84" y2="231.66" style="stroke-width:1.00;stroke:rgb(153,153,153)"/>
<!-- Arc:    26   21 -->
<g transform="translate(641.43 627.84)">
<g transform="rotate(397.01)">
<path d="M 0 0 L -1.00 2.50 L 5.00 0 L -1.00 -2.50 z" style="fill:rgb(153,153,153)"/>
</g></g>
<line x1="355.81" y1="412.50" x2="641.43" y2="627.84" style="stroke-width:1.00;stroke:rgb(153,153,153)"/>
<!-- Arc:    28   21 -->
<g transform="translate(668.18 646.26)">
<g transform="rotate(212.23)">
<path d="M 0 0 L -1.00 2.50 L 5.00 0 L -1.00 -2.50 z" style="fill:rgb(153,153,153)"/>
</g></g>
<line x1="800.62" y1="729.77" x2="668.18" y2="646.26" style="stroke-width:1.00;stroke:rgb(153,153,153)"/>
<!-- Arc:    28   27 -->
<g transform="translate(755.96 794.75)">
<g transform="rotate(484.50)">
<path d="M 0 0 L -1.00 2.50 L 5.00 0 L -1.00 -2.50 z" style="fill:rgb(153,153,153)"/>
</g></g>
<line x1="800.62" y1="729.77" x2="755.96" y2="794.75" style="stroke-width:1.00;stroke:rgb(153,153,153)"/>
<!-- Arc:    29   21 -->
<g transform="translate(638.17 638.22)">
<g transform="rotate(357.70)">
<path d="M 0 0 L -1.00 2.50 L 5.00 0 L -1.00 -2.50 z" style="fill:rgb(153,153,153)"/>
</g></g>
<line x1="230.91" y1="654.57" x2="638.17" y2="638.22" style="stroke-width:1.00;stroke:rgb(153,153,153)"/>
<!-- Edge:     1    2 -->
<line x1="1427.80" y1="448.03" x2="1462.94" y2="324.84" style="stroke-width:2.00;stroke:rgb(0,112,145)"/>
<!-- Edge:     2    5 -->
<line x1="1462.94" y1="324.84" x2="1307.81" y2="283.86" style="stroke-width:2.00;stroke:rgb(0,112,145)"/>
<!-- Edge:     7   14 -->
<line x1="540.55" y1="483.54" x2="702.02" y2="393.27" style="stroke-width:2.00;stroke:rgb(0,112,145)"/>
<!-- Edge:     8   11 -->
<line x1="770.97" y1="232.90" x2="422.24" y2="215.74" style="stroke-width:2.00;stroke:rgb(0,112,145)"/>
<!-- Edge:    10   12 -->
<line x1="1047.46" y1="226.51" x2="736.73" y2="52.80" style="stroke-width:2.00;stroke:rgb(0,112,145)"/>
<!-- Edge:    11   12 -->
<line x1="422.24" y1="215.74" x2="736.73" y2="52.80" style="stroke-width:2.00;stroke:rgb(0,112,145)"/>
<!-- Edge:    10   13 -->
<line x1="1047.46" y1="226.51" x2="1283.61" y2="408.84" style="stroke-width:2.00;stroke:rgb(0,112,145)"/>
<!-- Edge:    15   16 -->
<line x1="1191.85" y1="679.99" x2="833.54" y2="1003.20" style="stroke-width:2.00;stroke:rgb(0,112,145)"/>
<!-- Edge:    21   24 -->
<line x1="654.41" y1="637.62" x2="368.22" y2="804.25" style="stroke-width:2.00;stroke:rgb(0,112,145)"/>
<!-- Edge:    23   29 -->
<line x1="379.13" y1="597.38" x2="230.91" y2="654.57" style="stroke-width:2.00;stroke:rgb(0,112,145)"/>
<!-- Edge:    24   27 -->
<line x1="368.22" y1="804.25" x2="746.68" y2="808.09" style="stroke-width:2.00;stroke:rgb(0,112,145)"/>
<!-- Edge:    21   27 -->
<line x1="654.41" y1="637.62" x2="746.68" y2="808.09" style="stroke-width:2.00;stroke:rgb(0,112,145)"/>

<!-- Vertex:     1 -->
<g transform="translate(1427.80 448.03)">
<path d="M 10.00 10.00 L 0 -10.00 L -10.00 10.00 z" style="fill:rgb(255,217,188);stroke:rgb(102,0,0);stroke-width:0.50;"/>
</g>
<text x="1432.98" y="467.35" style="font-family:Arial;font-weight: bold;font-size:15px;fill:rgb(173,0,0)">ZV</text>
<!-- Vertex:     2 -->
<g transform="translate(1462.94 324.84)">
<path d="M 10.00 10.00 L 0 -10.00 L -10.00 10.00 z" style="fill:rgb(255,217,188);stroke:rgb(102,0,0);stroke-width:0.50;"/>
</g>
<text x="1468.11" y="344.16" style="font-family:Arial;font-weight: bold;font-size:15px;fill:rgb(173,0,0)">MK</text>
<!-- Vertex:     3 -->
<g transform="translate(999.62 453.58)">
<path d="M 10.00 10.00 L 0 -10.00 L -10.00 10.00 z" style="fill:rgb(255,217,188);stroke:rgb(102,0,0);stroke-width:0.50;"/>
</g>
<text x="1004.80" y="472.90" style="font-family:Arial;font-weight: bold;font-size:15px;fill:rgb(173,0,0)">CR</text>
<!-- Vertex:     4 -->
<g transform="translate(1402.59 635.51)">
<path d="M 10.00 10.00 L 0 -10.00 L -10.00 10.00 z" style="fill:rgb(255,217,188);stroke:rgb(102,0,0);stroke-width:0.50;"/>
</g>
<text x="1407.77" y="654.83" style="font-family:Arial;font-weight: bold;font-size:15px;fill:rgb(173,0,0)">KP</text>
<!-- Vertex:     5 -->
<g transform="translate(1307.81 283.86)">
<path d="M 10.00 10.00 L 0 -10.00 L -10.00 10.00 z" style="fill:rgb(255,217,188);stroke:rgb(102,0,0);stroke-width:0.50;"/>
</g>
<text x="1312.98" y="303.18" style="font-family:Arial;font-weight: bold;font-size:15px;fill:rgb(173,0,0)">LN</text>
<!-- Vertex:     6 -->
<g transform="translate(1104.13 592.08)">
<path d="M 10.00 10.00 L 0 -10.00 L -10.00 10.00 z" style="fill:rgb(255,217,188);stroke:rgb(102,0,0);stroke-width:0.50;"/>
</g>
<text x="1109.30" y="611.40" style="font-family:Arial;font-weight: bold;font-size:15px;fill:rgb(173,0,0)">FE</text>
<!-- Vertex:     7 -->
<g transform="translate(540.55 483.54)">
<path d="M 10.00 10.00 L 0 -10.00 L -10.00 10.00 z" style="fill:rgb(255,217,188);stroke:rgb(102,0,0);stroke-width:0.50;"/>
</g>
<text x="545.73" y="502.85" style="font-family:Arial;font-weight: bold;font-size:15px;fill:rgb(173,0,0)">GU</text>
<!-- Vertex:     8 -->
<g transform="translate(770.97 232.90)">
<path d="M 10.00 10.00 L 0 -10.00 L -10.00 10.00 z" style="fill:rgb(255,217,188);stroke:rgb(102,0,0);stroke-width:0.50;"/>
</g>
<text x="776.14" y="252.22" style="font-family:Arial;font-weight: bold;font-size:15px;fill:rgb(173,0,0)">JM</text>
<!-- Vertex:     9 -->
<g transform="translate(1440.19 133.56)">
<path d="M 10.00 10.00 L 0 -10.00 L -10.00 10.00 z" style="fill:rgb(255,217,188);stroke:rgb(102,0,0);stroke-width:0.50;"/>
</g>
<text x="1445.36" y="152.88" style="font-family:Arial;font-weight: bold;font-size:15px;fill:rgb(173,0,0)">WI</text>
<!-- Vertex:    10 -->
<g transform="translate(1047.46 226.51)">
<path d="M 10.00 10.00 L 0 -10.00 L -10.00 10.00 z" style="fill:rgb(255,217,188);stroke:rgb(102,0,0);stroke-width:0.50;"/>
</g>
<text x="1052.64" y="245.83" style="font-family:Arial;font-weight: bold;font-size:15px;fill:rgb(173,0,0)">GR</text>
<!-- Vertex:    11 -->
<g transform="translate(422.24 215.74)">
<path d="M 10.00 10.00 L 0 -10.00 L -10.00 10.00 z" style="fill:rgb(255,217,188);stroke:rgb(102,0,0);stroke-width:0.50;"/>
</g>
<text x="427.42" y="235.06" style="font-family:Arial;font-weight: bold;font-size:15px;fill:rgb(173,0,0)">ZI</text>
<!-- Vertex:    12 -->
<g transform="translate(736.73 52.80)">
<path d="M 10.00 10.00 L 0 -10.00 L -10.00 10.00 z" style="fill:rgb(255,217,188);stroke:rgb(102,0,0);stroke-width:0.50;"/>
</g>
<text x="741.91" y="72.12" style="font-family:Arial;font-weight: bold;font-size:15px;fill:rgb(173,0,0)">OW</text>
<!-- Vertex:    13 -->
<g transform="translate(1283.61 408.84)">
<path d="M 10.00 10.00 L 0 -10.00 L -10.00 10.00 z" style="fill:rgb(255,217,188);stroke:rgb(102,0,0);stroke-width:0.50;"/>
</g>
<text x="1288.78" y="428.16" style="font-family:Arial;font-weight: bold;font-size:15px;fill:rgb(173,0,0)">LL</text>
<!-- Vertex:    14 -->
<g transform="translate(702.02 393.27)">
<path d="M 10.00 10.00 L 0 -10.00 L -10.00 10.00 z" style="fill:rgb(255,217,188);stroke:rgb(102,0,0);stroke-width:0.50;"/>
</g>
<text x="707.19" y="412.59" style="font-family:Arial;font-weight: bold;font-size:15px;fill:rgb(173,0,0)">GL</text>
<!-- Vertex:    15 -->
<ellipse cx="1191.85" cy="679.99" rx="10.00" ry="10.00" style="fill:rgb(255,217,188);stroke:rgb(102,0,0);stroke-width:0.50;"/>
<text x="1197.03" y="699.31" style="font-family:Arial;font-weight: bold;font-size:15px;fill:rgb(173,0,0)">HN</text>
<!-- Vertex:    16 -->
<ellipse cx="833.54" cy="1003.20" rx="10.00" ry="10.00" style="fill:rgb(255,217,188);stroke:rgb(102,0,0);stroke-width:0.50;"/>
<text x="838.72" y="1022.52" style="font-family:Arial;font-weight: bold;font-size:15px;fill:rgb(173,0,0)">CM</text>
<!-- Vertex:    17 -->
<ellipse cx="271.24" cy="445.91" rx="10.00" ry="10.00" style="fill:rgb(255,217,188);stroke:rgb(102,0,0);stroke-width:0.50;"/>
<text x="276.42" y="465.23" style="font-family:Arial;font-weight: bold;font-size:15px;fill:rgb(173,0,0)">MR</text>
<!-- Vertex:    18 -->
<ellipse cx="203.94" cy="981.90" rx="10.00" ry="10.00" style="fill:rgb(255,217,188);stroke:rgb(102,0,0);stroke-width:0.50;"/>
<text x="209.12" y="1001.22" style="font-family:Arial;font-weight: bold;font-size:15px;fill:rgb(173,0,0)">CR</text>
<!-- Vertex:    19 -->
<ellipse cx="554.58" cy="932.08" rx="10.00" ry="10.00" style="fill:rgb(255,217,188);stroke:rgb(102,0,0);stroke-width:0.50;"/>
<text x="559.76" y="951.39" style="font-family:Arial;font-weight: bold;font-size:15px;fill:rgb(173,0,0)">SR</text>
<!-- Vertex:    20 -->
<ellipse cx="509.21" cy="774.26" rx="10.00" ry="10.00" style="fill:rgb(255,217,188);stroke:rgb(102,0,0);stroke-width:0.50;"/>
<text x="514.38" y="793.58" style="font-family:Arial;font-weight: bold;font-size:15px;fill:rgb(173,0,0)">CO</text>
<!-- Vertex:    21 -->
<ellipse cx="654.41" cy="637.62" rx="10.00" ry="10.00" style="fill:rgb(255,217,188);stroke:rgb(102,0,0);stroke-width:0.50;"/>
<text x="659.58" y="656.94" style="font-family:Arial;font-weight: bold;font-size:15px;fill:rgb(173,0,0)">SL</text>
<!-- Vertex:    22 -->
<ellipse cx="925.65" cy="720.24" rx="10.00" ry="10.00" style="fill:rgb(255,217,188);stroke:rgb(102,0,0);stroke-width:0.50;"/>
<text x="930.83" y="739.56" style="font-family:Arial;font-weight: bold;font-size:15px;fill:rgb(173,0,0)">SH</text>
<!-- Vertex:    23 -->
<ellipse cx="379.13" cy="597.38" rx="10.00" ry="10.00" style="fill:rgb(255,217,188);stroke:rgb(102,0,0);stroke-width:0.50;"/>
<text x="384.31" y="616.69" style="font-family:Arial;font-weight: bold;font-size:15px;fill:rgb(173,0,0)">HF</text>
<!-- Vertex:    24 -->
<ellipse cx="368.22" cy="804.25" rx="10.00" ry="10.00" style="fill:rgb(255,217,188);stroke:rgb(102,0,0);stroke-width:0.50;"/>
<text x="373.40" y="823.57" style="font-family:Arial;font-weight: bold;font-size:15px;fill:rgb(173,0,0)">JN</text>
<!-- Vertex:    25 -->
<ellipse cx="185.64" cy="704.63" rx="10.00" ry="10.00" style="fill:rgb(255,217,188);stroke:rgb(102,0,0);stroke-width:0.50;"/>
<text x="190.82" y="723.95" style="font-family:Arial;font-weight: bold;font-size:15px;fill:rgb(173,0,0)">FS</text>
<!-- Vertex:    26 -->
<ellipse cx="355.81" cy="412.50" rx="10.00" ry="10.00" style="fill:rgb(255,217,188);stroke:rgb(102,0,0);stroke-width:0.50;"/>
<text x="360.98" y="431.81" style="font-family:Arial;font-weight: bold;font-size:15px;fill:rgb(173,0,0)">MG</text>
<!-- Vertex:    27 -->
<ellipse cx="746.68" cy="808.09" rx="10.00" ry="10.00" style="fill:rgb(255,217,188);stroke:rgb(102,0,0);stroke-width:0.50;"/>
<text x="751.86" y="827.41" style="font-family:Arial;font-weight: bold;font-size:15px;fill:rgb(173,0,0)">PO</text>
<!-- Vertex:    28 -->
<ellipse cx="800.62" cy="729.77" rx="10.00" ry="10.00" style="fill:rgb(255,217,188);stroke:rgb(102,0,0);stroke-width:0.50;"/>
<text x="805.79" y="749.09" style="font-family:Arial;font-weight: bold;font-size:15px;fill:rgb(173,0,0)">AT</text>
<!-- Vertex:    29 -->
<ellipse cx="230.91" cy="654.57" rx="10.00" ry="10.00" style="fill:rgb(255,217,188);stroke:rgb(102,0,0);stroke-width:0.50;"/>
<text x="236.08" y="673.89" style="font-family:Arial;font-weight: bold;font-size:15px;fill:rgb(173,0,0)">BE</text>
</g>         <!-- Layer Network -->
</svg>
