<?xml version="1.0" encoding="UTF-8"?>
<!-- Title: 12. C:\Users\Uporabnik\AppData\Local\Pajek\data\p1n2.net (32) -->
<!-- Creator: Pajek 5.19: http://mrvar.fdv.uni-lj.si/pajek -->
<!-- CreationDate: 01-06-2025, 23:15:35 -->
<svg xml:space="preserve" viewBox="0 0 1936 1056" xmlns="http://www.w3.org/2000/svg" xmlns:xlink="http://www.w3.org/1999/xlink" xmlns:inkscape="http://www.inkscape.org/namespaces/inkscape">
<title>12. C:\Users\Uporabnik\AppData\Local\Pajek\data\p1n2.net (32)</title>
<g inkscape:groupmode="layer" id="PajekSig" inkscape:label="PajekSignature">
<g transform="translate(3 1038)">
<g transform="scale(0.1)">
<g transform="matrix(1 0 0 -1 0 96)">
<path d="M   7.67  49.98 L  31.76  72.76 L  46.91  78.63
         L  57.23  80.49 M  72.86  65.23 L  65.73  83.25
         L  57.06  75.49 L  56.75  68.65 M  76.27  68.03
         L  75.65  84.50 L  93.92  91.02 L 107.24  74.87
         M  80.29  67.72 L  89.28  84.81 L 104.77  81.70
         L 116.23  73.31 L 121.18  59.33 M  56.75  81.08
         L  71.31  64.30"
         style="fill:none; stroke:saddlebrown; stroke-width:5;"/>
<path d="M  86.18  70.21 L  91.45  73.00 L  95.78  69.58
         M  91.14  60.88 L  96.09  62.75 L  98.26  59.33"
         style="fill:none; stroke:saddlebrown; stroke-width:1.5;"/>
<path d="M  81.07  49.08 L  87.81  49.08 L  93.30  54.38
         L  93.30  60.88 L  93.30  67.39 L  87.81  72.69
         L  81.07  72.69 L  74.33  72.69 L  68.83  67.39
         L  68.83  60.88 L  68.83  54.38 L  74.33  49.08
         L  81.07  49.08 z"
         style="fill:maroon; stroke:saddlebrown; stroke-width:1;"/>
<path d="M  54.63  37.53 L  68.53  43.56 L  75.39  55.85
         L  69.90  65.35 L  64.41  72.86 L  48.60  74.06
         L  34.71  68.04 L  20.81  55.02 L  15.95  40.72
         L  17.44  33.22 L  24.92  28.72 L  40.73  30.51
         L  54.63  37.53 z"
         style="fill:maroon; stroke:saddlebrown; stroke-width:1;" />
<path d="M  77.82  50.63 L 103.84  59.33 L 131.10  43.80
         L 139.46  27.95 L 139.15  15.83 M  35.99   5.27
         L  47.15  32.92 L  61.71  50.01 L  70.07  46.90
         L  82.77  45.04 L  83.39  27.02 L  65.42  12.11
         M  68.52  50.63 L  91.14  49.39 L 103.53  43.17
         L 117.16  22.67 L 115.30   8.38"
         style="fill:none; stroke:saddlebrown; stroke-width:5;"/>
<path d="M  41.57  54.98 L  60.16  64.61 M  52.41  66.17
         L  57.99  57.47"
         style="fill:none; stroke:white; stroke-width:5;"/>
</g>
</g>
<animateMotion dur="20s" path="M3 0 L1918 0" begin="120s" fill="freeze"/>
</g>
<g transform="translate(3 1038)">
<g transform="scale(0.1)">
<text x="5" y="140" style="font-family:Brush Script MT;font-size:75px;fill:green;">Pajek</text>
</g>
<animateMotion dur="0.1s" path="M3 0 L1918 0" begin="120s" fill="freeze"/>
</g>
</g>      <!-- Layer Signature -->

<g inkscape:groupmode="layer" id="PajekNet" inkscape:label="PajekNetwork">

<!-- Arc:    13   27 -->
<g transform="translate(833.15 614.34)">
<g transform="rotate(374.86)">
<path d="M 0 0 L -1.00 2.50 L 5.00 0 L -1.00 -2.50 z" style="fill:rgb(153,153,153)"/>
</g></g>
<line x1="503.06" y1="526.74" x2="833.15" y2="614.34" style="stroke-width:1.00;stroke:rgb(153,153,153)"/>
<!-- Arc:    13    2 -->
<g transform="translate(310.43 672.55)">
<g transform="rotate(502.88)">
<path d="M 0 0 L -1.00 2.50 L 5.00 0 L -1.00 -2.50 z" style="fill:rgb(153,153,153)"/>
</g></g>
<line x1="503.06" y1="526.74" x2="310.43" y2="672.55" style="stroke-width:1.00;stroke:rgb(153,153,153)"/>
<!-- Arc:    13   28 -->
<g transform="translate(490.91 749.56)">
<g transform="rotate(453.12)">
<path d="M 0 0 L -1.00 2.50 L 5.00 0 L -1.00 -2.50 z" style="fill:rgb(153,153,153)"/>
</g></g>
<line x1="503.06" y1="526.74" x2="490.91" y2="749.56" style="stroke-width:1.00;stroke:rgb(153,153,153)"/>
<!-- Arc:     5    9 -->
<g transform="translate(736.14 991.89)">
<g transform="rotate(495.76)">
<path d="M 0 0 L -1.00 2.50 L 5.00 0 L -1.00 -2.50 z" style="fill:rgb(153,153,153)"/>
</g></g>
<line x1="1114.74" y1="623.24" x2="736.14" y2="991.89" style="stroke-width:1.00;stroke:rgb(153,153,153)"/>
<!-- Arc:     5   22 -->
<g transform="translate(933.99 985.36)">
<g transform="rotate(476.53)">
<path d="M 0 0 L -1.00 2.50 L 5.00 0 L -1.00 -2.50 z" style="fill:rgb(153,153,153)"/>
</g></g>
<line x1="1114.74" y1="623.24" x2="933.99" y2="985.36" style="stroke-width:1.00;stroke:rgb(153,153,153)"/>
<!-- Arc:     5   18 -->
<g transform="translate(1418.37 398.55)">
<g transform="rotate(323.50)">
<path d="M 0 0 L -1.00 2.50 L 5.00 0 L -1.00 -2.50 z" style="fill:rgb(153,153,153)"/>
</g></g>
<line x1="1114.74" y1="623.24" x2="1418.37" y2="398.55" style="stroke-width:1.00;stroke:rgb(153,153,153)"/>
<!-- Arc:     5   16 -->
<g transform="translate(751.41 323.37)">
<g transform="rotate(219.53)">
<path d="M 0 0 L -1.00 2.50 L 5.00 0 L -1.00 -2.50 z" style="fill:rgb(153,153,153)"/>
</g></g>
<line x1="1114.74" y1="623.24" x2="751.41" y2="323.37" style="stroke-width:1.00;stroke:rgb(153,153,153)"/>
<!-- Arc:     5   27 -->
<g transform="translate(865.10 618.81)">
<g transform="rotate(181.02)">
<path d="M 0 0 L -1.00 2.50 L 5.00 0 L -1.00 -2.50 z" style="fill:rgb(153,153,153)"/>
</g></g>
<line x1="1114.74" y1="623.24" x2="865.10" y2="618.81" style="stroke-width:1.00;stroke:rgb(153,153,153)"/>
<!-- Arc:    10    7 -->
<g transform="translate(1782.18 957.30)">
<g transform="rotate(391.27)">
<path d="M 0 0 L -1.00 2.50 L 5.00 0 L -1.00 -2.50 z" style="fill:rgb(153,153,153)"/>
</g></g>
<line x1="1613.33" y1="854.76" x2="1782.18" y2="957.30" style="stroke-width:1.00;stroke:rgb(153,153,153)"/>
<!-- Arc:     4   18 -->
<g transform="translate(1444.13 378.76)">
<g transform="rotate(501.34)">
<path d="M 0 0 L -1.00 2.50 L 5.00 0 L -1.00 -2.50 z" style="fill:rgb(153,153,153)"/>
</g></g>
<line x1="1708.14" y1="167.57" x2="1444.13" y2="378.76" style="stroke-width:1.00;stroke:rgb(153,153,153)"/>
<!-- Arc:    32   28 -->
<g transform="translate(474.28 761.86)">
<g transform="rotate(373.95)">
<path d="M 0 0 L -1.00 2.50 L 5.00 0 L -1.00 -2.50 z" style="fill:rgb(153,153,153)"/>
</g></g>
<line x1="96.80" y1="668.10" x2="474.28" y2="761.86" style="stroke-width:1.00;stroke:rgb(153,153,153)"/>
<!-- Arc:    32   13 -->
<g transform="translate(487.70 532.05)">
<g transform="rotate(340.81)">
<path d="M 0 0 L -1.00 2.50 L 5.00 0 L -1.00 -2.50 z" style="fill:rgb(153,153,153)"/>
</g></g>
<line x1="96.80" y1="668.10" x2="487.70" y2="532.05" style="stroke-width:1.00;stroke:rgb(153,153,153)"/>
<!-- Arc:    29   13 -->
<g transform="translate(517.52 519.33)">
<g transform="rotate(512.65)">
<path d="M 0 0 L -1.00 2.50 L 5.00 0 L -1.00 -2.50 z" style="fill:rgb(153,153,153)"/>
</g></g>
<line x1="1039.44" y1="249.36" x2="517.52" y2="519.33" style="stroke-width:1.00;stroke:rgb(153,153,153)"/>
<!-- Arc:    29   23 -->
<g transform="translate(882.95 67.54)">
<g transform="rotate(229.28)">
<path d="M 0 0 L -1.00 2.50 L 5.00 0 L -1.00 -2.50 z" style="fill:rgb(153,153,153)"/>
</g></g>
<line x1="1039.44" y1="249.36" x2="882.95" y2="67.54" style="stroke-width:1.00;stroke:rgb(153,153,153)"/>
<!-- Arc:    30    3 -->
<g transform="translate(884.70 498.37)">
<g transform="rotate(384.94)">
<path d="M 0 0 L -1.00 2.50 L 5.00 0 L -1.00 -2.50 z" style="fill:rgb(153,153,153)"/>
</g></g>
<line x1="610.84" y1="371.02" x2="884.70" y2="498.37" style="stroke-width:1.00;stroke:rgb(153,153,153)"/>
<!-- Arc:    30   21 -->
<g transform="translate(332.89 187.36)">
<g transform="rotate(213.46)">
<path d="M 0 0 L -1.00 2.50 L 5.00 0 L -1.00 -2.50 z" style="fill:rgb(153,153,153)"/>
</g></g>
<line x1="610.84" y1="371.02" x2="332.89" y2="187.36" style="stroke-width:1.00;stroke:rgb(153,153,153)"/>
<!-- Arc:    30   16 -->
<g transform="translate(724.10 319.62)">
<g transform="rotate(335.59)">
<path d="M 0 0 L -1.00 2.50 L 5.00 0 L -1.00 -2.50 z" style="fill:rgb(153,153,153)"/>
</g></g>
<line x1="610.84" y1="371.02" x2="724.10" y2="319.62" style="stroke-width:1.00;stroke:rgb(153,153,153)"/>
<!-- Arc:    30   14 -->
<g transform="translate(576.83 888.30)">
<g transform="rotate(453.76)">
<path d="M 0 0 L -1.00 2.50 L 5.00 0 L -1.00 -2.50 z" style="fill:rgb(153,153,153)"/>
</g></g>
<line x1="610.84" y1="371.02" x2="576.83" y2="888.30" style="stroke-width:1.00;stroke:rgb(153,153,153)"/>
<!-- Arc:    30   27 -->
<g transform="translate(837.57 606.83)">
<g transform="rotate(406.12)">
<path d="M 0 0 L -1.00 2.50 L 5.00 0 L -1.00 -2.50 z" style="fill:rgb(153,153,153)"/>
</g></g>
<line x1="610.84" y1="371.02" x2="837.57" y2="606.83" style="stroke-width:1.00;stroke:rgb(153,153,153)"/>
<!-- Arc:    30   20 -->
<g transform="translate(637.13 713.54)">
<g transform="rotate(445.61)">
<path d="M 0 0 L -1.00 2.50 L 5.00 0 L -1.00 -2.50 z" style="fill:rgb(153,153,153)"/>
</g></g>
<line x1="610.84" y1="371.02" x2="637.13" y2="713.54" style="stroke-width:1.00;stroke:rgb(153,153,153)"/>
<!-- Arc:    14    1 -->
<g transform="translate(341.06 879.44)">
<g transform="rotate(186.10)">
<path d="M 0 0 L -1.00 2.50 L 5.00 0 L -1.00 -2.50 z" style="fill:rgb(153,153,153)"/>
</g></g>
<line x1="575.76" y1="904.54" x2="341.06" y2="879.44" style="stroke-width:1.00;stroke:rgb(153,153,153)"/>
<!-- Arc:     1   28 -->
<g transform="translate(476.59 774.88)">
<g transform="rotate(325.86)">
<path d="M 0 0 L -1.00 2.50 L 5.00 0 L -1.00 -2.50 z" style="fill:rgb(153,153,153)"/>
</g></g>
<line x1="324.90" y1="877.73" x2="476.59" y2="774.88" style="stroke-width:1.00;stroke:rgb(153,153,153)"/>
<!-- Arc:    19   29 -->
<g transform="translate(1053.06 240.50)">
<g transform="rotate(506.87)">
<path d="M 0 0 L -1.00 2.50 L 5.00 0 L -1.00 -2.50 z" style="fill:rgb(153,153,153)"/>
</g></g>
<line x1="1274.99" y1="95.64" x2="1053.06" y2="240.50" style="stroke-width:1.00;stroke:rgb(153,153,153)"/>
<!-- Arc:    19   18 -->
<g transform="translate(1423.84 374.61)">
<g transform="rotate(421.92)">
<path d="M 0 0 L -1.00 2.50 L 5.00 0 L -1.00 -2.50 z" style="fill:rgb(153,153,153)"/>
</g></g>
<line x1="1274.99" y1="95.64" x2="1423.84" y2="374.61" style="stroke-width:1.00;stroke:rgb(153,153,153)"/>
<!-- Arc:    19   23 -->
<g transform="translate(886.42 54.57)">
<g transform="rotate(186.03)">
<path d="M 0 0 L -1.00 2.50 L 5.00 0 L -1.00 -2.50 z" style="fill:rgb(153,153,153)"/>
</g></g>
<line x1="1274.99" y1="95.64" x2="886.42" y2="54.57" style="stroke-width:1.00;stroke:rgb(153,153,153)"/>
<!-- Arc:    31   15 -->
<g transform="translate(668.03 621.32)">
<g transform="rotate(413.74)">
<path d="M 0 0 L -1.00 2.50 L 5.00 0 L -1.00 -2.50 z" style="fill:rgb(153,153,153)"/>
</g></g>
<line x1="485.01" y1="371.77" x2="668.03" y2="621.32" style="stroke-width:1.00;stroke:rgb(153,153,153)"/>
<!-- Arc:     8   15 -->
<g transform="translate(693.69 632.19)">
<g transform="rotate(532.08)">
<path d="M 0 0 L -1.00 2.50 L 5.00 0 L -1.00 -2.50 z" style="fill:rgb(153,153,153)"/>
</g></g>
<line x1="1286.31" y1="549.74" x2="693.69" y2="632.19" style="stroke-width:1.00;stroke:rgb(153,153,153)"/>
<!-- Arc:    27   20 -->
<g transform="translate(653.80 721.52)">
<g transform="rotate(512.16)">
<path d="M 0 0 L -1.00 2.50 L 5.00 0 L -1.00 -2.50 z" style="fill:rgb(153,153,153)"/>
</g></g>
<line x1="848.85" y1="618.53" x2="653.80" y2="721.52" style="stroke-width:1.00;stroke:rgb(153,153,153)"/>
<!-- Arc:    26   30 -->
<g transform="translate(608.36 354.84)">
<g transform="rotate(441.51)">
<path d="M 0 0 L -1.00 2.50 L 5.00 0 L -1.00 -2.50 z" style="fill:rgb(153,153,153)"/>
</g></g>
<line x1="567.45" y1="80.70" x2="608.36" y2="354.84" style="stroke-width:1.00;stroke:rgb(153,153,153)"/>
<!-- Arc:    12   27 -->
<g transform="translate(859.09 631.15)">
<g transform="rotate(230.84)">
<path d="M 0 0 L -1.00 2.50 L 5.00 0 L -1.00 -2.50 z" style="fill:rgb(153,153,153)"/>
</g></g>
<line x1="1140.43" y1="976.56" x2="859.09" y2="631.15" style="stroke-width:1.00;stroke:rgb(153,153,153)"/>
<!-- Arc:    12   28 -->
<g transform="translate(505.51 770.80)">
<g transform="rotate(197.96)">
<path d="M 0 0 L -1.00 2.50 L 5.00 0 L -1.00 -2.50 z" style="fill:rgb(153,153,153)"/>
</g></g>
<line x1="1140.43" y1="976.56" x2="505.51" y2="770.80" style="stroke-width:1.00;stroke:rgb(153,153,153)"/>
<!-- Arc:    12   20 -->
<g transform="translate(653.88 737.42)">
<g transform="rotate(206.17)">
<path d="M 0 0 L -1.00 2.50 L 5.00 0 L -1.00 -2.50 z" style="fill:rgb(153,153,153)"/>
</g></g>
<line x1="1140.43" y1="976.56" x2="653.88" y2="737.42" style="stroke-width:1.00;stroke:rgb(153,153,153)"/>
<!-- Arc:    24    4 -->
<g transform="translate(1692.13 170.36)">
<g transform="rotate(350.33)">
<path d="M 0 0 L -1.00 2.50 L 5.00 0 L -1.00 -2.50 z" style="fill:rgb(153,153,153)"/>
</g></g>
<line x1="1461.08" y1="209.72" x2="1692.13" y2="170.36" style="stroke-width:1.00;stroke:rgb(153,153,153)"/>
<!-- Arc:    24   29 -->
<g transform="translate(1055.62 247.90)">
<g transform="rotate(534.62)">
<path d="M 0 0 L -1.00 2.50 L 5.00 0 L -1.00 -2.50 z" style="fill:rgb(153,153,153)"/>
</g></g>
<line x1="1461.08" y1="209.72" x2="1055.62" y2="247.90" style="stroke-width:1.00;stroke:rgb(153,153,153)"/>
<!-- Arc:     2   15 -->
<g transform="translate(661.48 636.47)">
<g transform="rotate(352.62)">
<path d="M 0 0 L -1.00 2.50 L 5.00 0 L -1.00 -2.50 z" style="fill:rgb(153,153,153)"/>
</g></g>
<line x1="295.44" y1="683.88" x2="661.48" y2="636.47" style="stroke-width:1.00;stroke:rgb(153,153,153)"/>
<!-- Arc:     6   11 -->
<g transform="translate(1569.35 677.97)">
<g transform="rotate(318.00)">
<path d="M 0 0 L -1.00 2.50 L 5.00 0 L -1.00 -2.50 z" style="fill:rgb(153,153,153)"/>
</g></g>
<line x1="1438.89" y1="795.44" x2="1569.35" y2="677.97" style="stroke-width:1.00;stroke:rgb(153,153,153)"/>
<!-- Arc:     6   17 -->
<g transform="translate(1449.80 939.43)">
<g transform="rotate(445.67)">
<path d="M 0 0 L -1.00 2.50 L 5.00 0 L -1.00 -2.50 z" style="fill:rgb(153,153,153)"/>
</g></g>
<line x1="1438.89" y1="795.44" x2="1449.80" y2="939.43" style="stroke-width:1.00;stroke:rgb(153,153,153)"/>
<!-- Arc:    15   16 -->
<g transform="translate(735.85 328.92)">
<g transform="rotate(280.79)">
<path d="M 0 0 L -1.00 2.50 L 5.00 0 L -1.00 -2.50 z" style="fill:rgb(153,153,153)"/>
</g></g>
<line x1="677.60" y1="634.45" x2="735.85" y2="328.92" style="stroke-width:1.00;stroke:rgb(153,153,153)"/>
<!-- Arc:    25   11 -->
<g transform="translate(1566.82 674.21)">
<g transform="rotate(334.05)">
<path d="M 0 0 L -1.00 2.50 L 5.00 0 L -1.00 -2.50 z" style="fill:rgb(153,153,153)"/>
</g></g>
<line x1="1142.08" y1="880.94" x2="1566.82" y2="674.21" style="stroke-width:1.00;stroke:rgb(153,153,153)"/>
<!-- Arc:    25   27 -->
<g transform="translate(860.94 629.39)">
<g transform="rotate(221.82)">
<path d="M 0 0 L -1.00 2.50 L 5.00 0 L -1.00 -2.50 z" style="fill:rgb(153,153,153)"/>
</g></g>
<line x1="1142.08" y1="880.94" x2="860.94" y2="629.39" style="stroke-width:1.00;stroke:rgb(153,153,153)"/>
<!-- Arc:    25   14 -->
<g transform="translate(592.00 903.83)">
<g transform="rotate(537.62)">
<path d="M 0 0 L -1.00 2.50 L 5.00 0 L -1.00 -2.50 z" style="fill:rgb(153,153,153)"/>
</g></g>
<line x1="1142.08" y1="880.94" x2="592.00" y2="903.83" style="stroke-width:1.00;stroke:rgb(153,153,153)"/>
<!-- Arc:     7   11 -->
<g transform="translate(1590.96 680.25)">
<g transform="rotate(234.19)">
<path d="M 0 0 L -1.00 2.50 L 5.00 0 L -1.00 -2.50 z" style="fill:rgb(153,153,153)"/>
</g></g>
<line x1="1797.53" y1="966.55" x2="1590.96" y2="680.25" style="stroke-width:1.00;stroke:rgb(153,153,153)"/>
<!-- Arc:    18   11 -->
<g transform="translate(1573.77 652.76)">
<g transform="rotate(421.66)">
<path d="M 0 0 L -1.00 2.50 L 5.00 0 L -1.00 -2.50 z" style="fill:rgb(153,153,153)"/>
</g></g>
<line x1="1431.48" y1="388.96" x2="1573.77" y2="652.76" style="stroke-width:1.00;stroke:rgb(153,153,153)"/>
<!-- Arc:    18   29 -->
<g transform="translate(1054.72 254.87)">
<g transform="rotate(199.59)">
<path d="M 0 0 L -1.00 2.50 L 5.00 0 L -1.00 -2.50 z" style="fill:rgb(153,153,153)"/>
</g></g>
<line x1="1431.48" y1="388.96" x2="1054.72" y2="254.87" style="stroke-width:1.00;stroke:rgb(153,153,153)"/>
<!-- Arc:     9    1 -->
<g transform="translate(340.43 882.53)">
<g transform="rotate(197.44)">
<path d="M 0 0 L -1.00 2.50 L 5.00 0 L -1.00 -2.50 z" style="fill:rgb(153,153,153)"/>
</g></g>
<line x1="724.47" y1="1003.20" x2="340.43" y2="882.53" style="stroke-width:1.00;stroke:rgb(153,153,153)"/>
<!-- Arc:    22   20 -->
<g transform="translate(652.84 743.38)">
<g transform="rotate(223.13)">
<path d="M 0 0 L -1.00 2.50 L 5.00 0 L -1.00 -2.50 z" style="fill:rgb(153,153,153)"/>
</g></g>
<line x1="926.66" y1="999.86" x2="652.84" y2="743.38" style="stroke-width:1.00;stroke:rgb(153,153,153)"/>
<!-- Arc:    22   27 -->
<g transform="translate(852.18 634.43)">
<g transform="rotate(258.48)">
<path d="M 0 0 L -1.00 2.50 L 5.00 0 L -1.00 -2.50 z" style="fill:rgb(153,153,153)"/>
</g></g>
<line x1="926.66" y1="999.86" x2="852.18" y2="634.43" style="stroke-width:1.00;stroke:rgb(153,153,153)"/>
<!-- Arc:    11   10 -->
<g transform="translate(1608.99 839.23)">
<g transform="rotate(425.37)">
<path d="M 0 0 L -1.00 2.50 L 5.00 0 L -1.00 -2.50 z" style="fill:rgb(153,153,153)"/>
</g></g>
<path d="M 1581.43 667.09 C 1579.19 688.77 1600.10 819.34 1608.99 839.23" style="stroke-width:1.00;stroke:rgb(153,153,153);fill:none"/> 
<!-- Arc:    11    8 -->
<g transform="translate(1301.79 554.22)">
<g transform="rotate(186.67)">
<path d="M 0 0 L -1.00 2.50 L 5.00 0 L -1.00 -2.50 z" style="fill:rgb(153,153,153)"/>
</g></g>
<path d="M 1581.43 667.09 C 1551.32 644.42 1339.21 558.80 1301.79 554.22" style="stroke-width:1.00;stroke:rgb(153,153,153);fill:none"/> 
<!-- Arc:    11   17 -->
<g transform="translate(1456.40 939.50)">
<g transform="rotate(459.35)">
<path d="M 0 0 L -1.00 2.50 L 5.00 0 L -1.00 -2.50 z" style="fill:rgb(153,153,153)"/>
</g></g>
<path d="M 1581.43 667.09 C 1557.52 695.94 1462.68 902.56 1456.40 939.50" style="stroke-width:1.00;stroke:rgb(153,153,153);fill:none"/> 
<!-- Arc:     3   31 -->
<g transform="translate(500.76 375.17)">
<g transform="rotate(182.85)">
<path d="M 0 0 L -1.00 2.50 L 5.00 0 L -1.00 -2.50 z" style="fill:rgb(153,153,153)"/>
</g></g>
<path d="M 899.43 505.23 C 855.50 476.63 553.10 377.98 500.76 375.17" style="stroke-width:1.00;stroke:rgb(153,153,153);fill:none"/> 
<!-- Arc:     3   27 -->
<g transform="translate(853.90 603.22)">
<g transform="rotate(459.06)">
<path d="M 0 0 L -1.00 2.50 L 5.00 0 L -1.00 -2.50 z" style="fill:rgb(153,153,153)"/>
</g></g>
<path d="M 899.43 505.23 C 890.77 515.59 856.23 589.92 853.90 603.22" style="stroke-width:1.00;stroke:rgb(153,153,153);fill:none"/> 
<!-- Arc:     3    5 -->
<g transform="translate(1099.92 616.91)">
<g transform="rotate(373.72)">
<path d="M 0 0 L -1.00 2.50 L 5.00 0 L -1.00 -2.50 z" style="fill:rgb(153,153,153)"/>
</g></g>
<path d="M 899.43 505.23 C 920.03 525.20 1072.10 609.91 1099.92 616.91" style="stroke-width:1.00;stroke:rgb(153,153,153);fill:none"/> 
<!-- Arc:    13   16 -->
<g transform="translate(728.11 324.91)">
<g transform="rotate(302.81)">
<path d="M 0 0 L -1.00 2.50 L 5.00 0 L -1.00 -2.50 z" style="fill:rgb(153,153,153)"/>
</g></g>
<path d="M 503.06 526.74 C 536.76 509.65 707.47 356.56 728.11 324.91" style="stroke-width:1.00;stroke:rgb(153,153,153);fill:none"/> 
<!-- Arc:    13    1 -->
<g transform="translate(330.73 862.71)">
<g transform="rotate(461.91)">
<path d="M 0 0 L -1.00 2.50 L 5.00 0 L -1.00 -2.50 z" style="fill:rgb(153,153,153)"/>
</g></g>
<path d="M 503.06 526.74 C 471.38 561.73 340.67 816.57 330.73 862.71" style="stroke-width:1.00;stroke:rgb(153,153,153);fill:none"/> 
<!-- Arc:    13   31 -->
<g transform="translate(488.53 387.51)">
<g transform="rotate(248.38)">
<path d="M 0 0 L -1.00 2.50 L 5.00 0 L -1.00 -2.50 z" style="fill:rgb(153,153,153)"/>
</g></g>
<path d="M 503.06 526.74 C 505.81 509.46 494.79 403.85 488.53 387.51" style="stroke-width:1.00;stroke:rgb(153,153,153);fill:none"/> 
<!-- Arc:     5   12 -->
<g transform="translate(1137.68 960.68)">
<g transform="rotate(430.84)">
<path d="M 0 0 L -1.00 2.50 L 5.00 0 L -1.00 -2.50 z" style="fill:rgb(153,153,153)"/>
</g></g>
<path d="M 1114.74 623.24 C 1106.59 664.73 1123.99 920.68 1137.68 960.68" style="stroke-width:1.00;stroke:rgb(153,153,153);fill:none"/> 
<!-- Arc:    10   17 -->
<g transform="translate(1465.21 944.88)">
<g transform="rotate(493.15)">
<path d="M 0 0 L -1.00 2.50 L 5.00 0 L -1.00 -2.50 z" style="fill:rgb(153,153,153)"/>
</g></g>
<path d="M 1613.33 854.76 C 1592.53 860.85 1480.18 929.21 1465.21 944.88" style="stroke-width:1.00;stroke:rgb(153,153,153);fill:none"/> 
<!-- Arc:    23   30 -->
<g transform="translate(621.62 355.32)">
<g transform="rotate(474.17)">
<path d="M 0 0 L -1.00 2.50 L 5.00 0 L -1.00 -2.50 z" style="fill:rgb(153,153,153)"/>
</g></g>
<path d="M 870.21 52.80 C 830.41 81.28 641.85 310.75 621.62 355.32" style="stroke-width:1.00;stroke:rgb(153,153,153);fill:none"/> 
<!-- Arc:     4   19 -->
<g transform="translate(1291.09 96.60)">
<g transform="rotate(534.44)">
<path d="M 0 0 L -1.00 2.50 L 5.00 0 L -1.00 -2.50 z" style="fill:rgb(153,153,153)"/>
</g></g>
<path d="M 1708.14 167.57 C 1660.08 145.51 1343.74 91.68 1291.09 96.60" style="stroke-width:1.00;stroke:rgb(153,153,153);fill:none"/> 
<!-- Arc:    32    1 -->
<g transform="translate(312.05 868.02)">
<g transform="rotate(387.57)">
<path d="M 0 0 L -1.00 2.50 L 5.00 0 L -1.00 -2.50 z" style="fill:rgb(153,153,153)"/>
</g></g>
<path d="M 96.80 668.10 C 116.32 699.20 279.59 850.85 312.05 868.02" style="stroke-width:1.00;stroke:rgb(153,153,153);fill:none"/> 
<!-- Arc:    21   16 -->
<g transform="translate(723.18 309.56)">
<g transform="rotate(362.85)">
<path d="M 0 0 L -1.00 2.50 L 5.00 0 L -1.00 -2.50 z" style="fill:rgb(153,153,153)"/>
</g></g>
<path d="M 317.67 177.24 C 362.35 206.34 669.93 306.71 723.18 309.56" style="stroke-width:1.00;stroke:rgb(153,153,153);fill:none"/> 
<!-- Arc:    30   31 -->
<g transform="translate(501.03 370.11)">
<g transform="rotate(524.63)">
<path d="M 0 0 L -1.00 2.50 L 5.00 0 L -1.00 -2.50 z" style="fill:rgb(153,153,153)"/>
</g></g>
<path d="M 610.84 371.02 C 597.61 367.36 514.32 366.67 501.03 370.11" style="stroke-width:1.00;stroke:rgb(153,153,153);fill:none"/> 
<!-- Arc:    16   26 -->
<g transform="translate(579.67 94.60)">
<g transform="rotate(218.55)">
<path d="M 0 0 L -1.00 2.50 L 5.00 0 L -1.00 -2.50 z" style="fill:rgb(153,153,153)"/>
</g></g>
<path d="M 738.93 312.96 C 726.77 281.45 605.97 115.81 579.67 94.60" style="stroke-width:1.00;stroke:rgb(153,153,153);fill:none"/> 
<!-- Arc:    14    9 -->
<g transform="translate(710.26 995.62)">
<g transform="rotate(378.54)">
<path d="M 0 0 L -1.00 2.50 L 5.00 0 L -1.00 -2.50 z" style="fill:rgb(153,153,153)"/>
</g></g>
<path d="M 575.76 904.54 C 589.05 919.89 691.07 988.97 710.26 995.62" style="stroke-width:1.00;stroke:rgb(153,153,153);fill:none"/> 
<!-- Arc:    14    2 -->
<g transform="translate(311.19 694.12)">
<g transform="rotate(203.22)">
<path d="M 0 0 L -1.00 2.50 L 5.00 0 L -1.00 -2.50 z" style="fill:rgb(153,153,153)"/>
</g></g>
<path d="M 575.76 904.54 C 550.62 870.57 349.94 710.97 311.19 694.12" style="stroke-width:1.00;stroke:rgb(153,153,153);fill:none"/> 
<!-- Arc:     1    2 -->
<g transform="translate(299.50 699.61)">
<g transform="rotate(246.37)">
<path d="M 0 0 L -1.00 2.50 L 5.00 0 L -1.00 -2.50 z" style="fill:rgb(153,153,153)"/>
</g></g>
<path d="M 324.90 877.73 C 327.60 855.41 308.33 720.29 299.50 699.61" style="stroke-width:1.00;stroke:rgb(153,153,153);fill:none"/> 
<!-- Arc:    31   27 -->
<g transform="translate(834.65 610.89)">
<g transform="rotate(379.15)">
<path d="M 0 0 L -1.00 2.50 L 5.00 0 L -1.00 -2.50 z" style="fill:rgb(153,153,153)"/>
</g></g>
<path d="M 485.01 371.77 C 519.49 411.95 784.70 593.33 834.65 610.89" style="stroke-width:1.00;stroke:rgb(153,153,153);fill:none"/> 
<!-- Arc:    23   26 -->
<g transform="translate(583.32 77.65)">
<g transform="rotate(519.73)">
<path d="M 0 0 L -1.00 2.50 L 5.00 0 L -1.00 -2.50 z" style="fill:rgb(153,153,153)"/>
</g></g>
<path d="M 870.21 52.80 C 834.77 46.52 617.15 65.37 583.32 77.65" style="stroke-width:1.00;stroke:rgb(153,153,153);fill:none"/> 
<!-- Arc:    21   26 -->
<g transform="translate(552.41 88.17)">
<g transform="rotate(323.85)">
<path d="M 0 0 L -1.00 2.50 L 5.00 0 L -1.00 -2.50 z" style="fill:rgb(153,153,153)"/>
</g></g>
<path d="M 317.67 177.24 C 348.90 174.08 526.95 106.52 552.41 88.17" style="stroke-width:1.00;stroke:rgb(153,153,153);fill:none"/> 
<!-- Arc:    17   12 -->
<g transform="translate(1156.32 973.85)">
<g transform="rotate(521.15)">
<path d="M 0 0 L -1.00 2.50 L 5.00 0 L -1.00 -2.50 z" style="fill:rgb(153,153,153)"/>
</g></g>
<path d="M 1450.94 955.66 C 1414.78 948.33 1191.30 962.12 1156.32 973.85" style="stroke-width:1.00;stroke:rgb(153,153,153);fill:none"/> 
<!-- Arc:     3   12 -->
<g transform="translate(1131.70 963.01)">
<g transform="rotate(407.92)">
<path d="M 0 0 L -1.00 2.50 L 5.00 0 L -1.00 -2.50 z" style="fill:rgb(153,153,153)"/>
</g></g>
<path d="M 899.43 505.23 C 912.67 568.02 1088.84 915.25 1131.70 963.01" style="stroke-width:1.00;stroke:rgb(153,153,153);fill:none"/> 
<!-- Arc:    32    2 -->
<g transform="translate(279.30 684.13)">
<g transform="rotate(349.52)">
<path d="M 0 0 L -1.00 2.50 L 5.00 0 L -1.00 -2.50 z" style="fill:rgb(153,153,153)"/>
</g></g>
<path d="M 96.80 668.10 C 118.32 675.94 256.75 688.10 279.30 684.13" style="stroke-width:1.00;stroke:rgb(153,153,153);fill:none"/> 
<!-- Arc:    10    6 -->
<g transform="translate(1454.58 799.11)">
<g transform="rotate(183.77)">
<path d="M 0 0 L -1.00 2.50 L 5.00 0 L -1.00 -2.50 z" style="fill:rgb(153,153,153)"/>
</g></g>
<path d="M 1613.33 854.76 C 1595.97 842.90 1475.55 800.69 1454.58 799.11" style="stroke-width:1.00;stroke:rgb(153,153,153);fill:none"/> 
<!-- Arc:     5    6 -->
<g transform="translate(1423.97 789.34)">
<g transform="rotate(372.98)">
<path d="M 0 0 L -1.00 2.50 L 5.00 0 L -1.00 -2.50 z" style="fill:rgb(153,153,153)"/>
</g></g>
<path d="M 1114.74 623.24 C 1146.70 653.30 1381.26 779.29 1423.97 789.34" style="stroke-width:1.00;stroke:rgb(153,153,153);fill:none"/> 
<!-- Arc:    13   15 -->
<g transform="translate(663.13 627.36)">
<g transform="rotate(376.66)">
<path d="M 0 0 L -1.00 2.50 L 5.00 0 L -1.00 -2.50 z" style="fill:rgb(153,153,153)"/>
</g></g>
<path d="M 503.06 526.74 C 519.13 544.07 640.55 620.39 663.13 627.36" style="stroke-width:1.00;stroke:rgb(153,153,153);fill:none"/> 
<!-- Arc:    17    7 -->
<g transform="translate(1781.44 967.75)">
<g transform="rotate(346.81)">
<path d="M 0 0 L -1.00 2.50 L 5.00 0 L -1.00 -2.50 z" style="fill:rgb(153,153,153)"/>
</g></g>
<path d="M 1450.94 955.66 C 1490.45 967.82 1741.14 976.98 1781.44 967.75" style="stroke-width:1.00;stroke:rgb(153,153,153);fill:none"/> 
<!-- Arc:    24   18 -->
<g transform="translate(1432.44 372.86)">
<g transform="rotate(444.40)">
<path d="M 0 0 L -1.00 2.50 L 5.00 0 L -1.00 -2.50 z" style="fill:rgb(153,153,153)"/>
</g></g>
<path d="M 1461.08 209.72 C 1452.34 228.49 1430.62 352.23 1432.44 372.86" style="stroke-width:1.00;stroke:rgb(153,153,153);fill:none"/> 
<!-- Arc:     2   28 -->
<g transform="translate(474.65 761.03)">
<g transform="rotate(367.82)">
<path d="M 0 0 L -1.00 2.50 L 5.00 0 L -1.00 -2.50 z" style="fill:rgb(153,153,153)"/>
</g></g>
<path d="M 295.44 683.88 C 314.59 698.99 450.52 757.51 474.65 761.03" style="stroke-width:1.00;stroke:rgb(153,153,153);fill:none"/> 
<!-- Arc:    15   28 -->
<g transform="translate(502.26 755.26)">
<g transform="rotate(490.00)">
<path d="M 0 0 L -1.00 2.50 L 5.00 0 L -1.00 -2.50 z" style="fill:rgb(153,153,153)"/>
</g></g>
<path d="M 677.60 634.45 C 652.52 643.36 519.52 735.00 502.26 755.26" style="stroke-width:1.00;stroke:rgb(153,153,153);fill:none"/> 
<!-- Arc:     9   22 -->
<g transform="translate(910.65 1001.75)">
<g transform="rotate(344.06)">
<path d="M 0 0 L -1.00 2.50 L 5.00 0 L -1.00 -2.50 z" style="fill:rgb(153,153,153)"/>
</g></g>
<path d="M 724.47 1003.20 C 747.00 1009.05 888.22 1007.95 910.65 1001.75" style="stroke-width:1.00;stroke:rgb(153,153,153);fill:none"/> 
<!-- Arc:    14   22 -->
<g transform="translate(910.75 997.25)">
<g transform="rotate(360.20)">
<path d="M 0 0 L -1.00 2.50 L 5.00 0 L -1.00 -2.50 z" style="fill:rgb(153,153,153)"/>
</g></g>
<path d="M 575.76 904.54 C 613.21 926.57 867.30 996.90 910.75 997.25" style="stroke-width:1.00;stroke:rgb(153,153,153);fill:none"/> 
<!-- Arc:    12   22 -->
<g transform="translate(942.43 996.55)">
<g transform="rotate(518.77)">
<path d="M 0 0 L -1.00 2.50 L 5.00 0 L -1.00 -2.50 z" style="fill:rgb(153,153,153)"/>
</g></g>
<path d="M 1140.43 976.56 C 1115.87 972.57 965.69 987.74 942.43 996.55" style="stroke-width:1.00;stroke:rgb(153,153,153);fill:none"/> 
<!-- Arc:    10   11 -->
<g transform="translate(1585.77 682.62)">
<g transform="rotate(245.37)">
<path d="M 0 0 L -1.00 2.50 L 5.00 0 L -1.00 -2.50 z" style="fill:rgb(153,153,153)"/>
</g></g>
<path d="M 1613.33 854.76 C 1615.57 833.08 1594.67 702.51 1585.77 682.62" style="stroke-width:1.00;stroke:rgb(153,153,153);fill:none"/> 
<!-- Arc:     8   11 -->
<g transform="translate(1565.95 662.62)">
<g transform="rotate(366.67)">
<path d="M 0 0 L -1.00 2.50 L 5.00 0 L -1.00 -2.50 z" style="fill:rgb(153,153,153)"/>
</g></g>
<path d="M 1286.31 549.74 C 1316.43 572.42 1528.53 658.04 1565.95 662.62" style="stroke-width:1.00;stroke:rgb(153,153,153);fill:none"/> 
<!-- Arc:    17   11 -->
<g transform="translate(1576.35 682.40)">
<g transform="rotate(279.34)">
<path d="M 0 0 L -1.00 2.50 L 5.00 0 L -1.00 -2.50 z" style="fill:rgb(153,153,153)"/>
</g></g>
<path d="M 1450.94 955.66 C 1474.92 926.73 1570.04 719.45 1576.35 682.40" style="stroke-width:1.00;stroke:rgb(153,153,153);fill:none"/> 
<!-- Arc:    31    3 -->
<g transform="translate(883.68 501.83)">
<g transform="rotate(362.85)">
<path d="M 0 0 L -1.00 2.50 L 5.00 0 L -1.00 -2.50 z" style="fill:rgb(153,153,153)"/>
</g></g>
<path d="M 485.01 371.77 C 528.94 400.37 831.34 499.02 883.68 501.83" style="stroke-width:1.00;stroke:rgb(153,153,153);fill:none"/> 
<!-- Arc:    27    3 -->
<g transform="translate(894.38 520.54)">
<g transform="rotate(279.06)">
<path d="M 0 0 L -1.00 2.50 L 5.00 0 L -1.00 -2.50 z" style="fill:rgb(153,153,153)"/>
</g></g>
<path d="M 848.85 618.53 C 857.52 608.17 892.05 533.84 894.38 520.54" style="stroke-width:1.00;stroke:rgb(153,153,153);fill:none"/> 
<!-- Arc:     5    3 -->
<g transform="translate(914.25 511.56)">
<g transform="rotate(193.72)">
<path d="M 0 0 L -1.00 2.50 L 5.00 0 L -1.00 -2.50 z" style="fill:rgb(153,153,153)"/>
</g></g>
<path d="M 1114.74 623.24 C 1094.14 603.27 942.07 518.56 914.25 511.56" style="stroke-width:1.00;stroke:rgb(153,153,153);fill:none"/> 
<!-- Arc:    16   13 -->
<g transform="translate(513.88 514.79)">
<g transform="rotate(482.81)">
<path d="M 0 0 L -1.00 2.50 L 5.00 0 L -1.00 -2.50 z" style="fill:rgb(153,153,153)"/>
</g></g>
<path d="M 738.93 312.96 C 705.23 330.05 534.52 483.14 513.88 514.79" style="stroke-width:1.00;stroke:rgb(153,153,153);fill:none"/> 
<!-- Arc:     1   13 -->
<g transform="translate(497.23 541.76)">
<g transform="rotate(281.91)">
<path d="M 0 0 L -1.00 2.50 L 5.00 0 L -1.00 -2.50 z" style="fill:rgb(153,153,153)"/>
</g></g>
<path d="M 324.90 877.73 C 356.58 842.74 487.29 587.91 497.23 541.76" style="stroke-width:1.00;stroke:rgb(153,153,153);fill:none"/> 
<!-- Arc:    31   13 -->
<g transform="translate(499.54 511.00)">
<g transform="rotate(428.38)">
<path d="M 0 0 L -1.00 2.50 L 5.00 0 L -1.00 -2.50 z" style="fill:rgb(153,153,153)"/>
</g></g>
<path d="M 485.01 371.77 C 482.26 389.05 493.28 494.66 499.54 511.00" style="stroke-width:1.00;stroke:rgb(153,153,153);fill:none"/> 
<!-- Arc:    12    5 -->
<g transform="translate(1117.49 639.12)">
<g transform="rotate(250.84)">
<path d="M 0 0 L -1.00 2.50 L 5.00 0 L -1.00 -2.50 z" style="fill:rgb(153,153,153)"/>
</g></g>
<path d="M 1140.43 976.56 C 1148.57 935.08 1131.17 679.12 1117.49 639.12" style="stroke-width:1.00;stroke:rgb(153,153,153);fill:none"/> 
<!-- Arc:    17   10 -->
<g transform="translate(1600.58 864.62)">
<g transform="rotate(313.15)">
<path d="M 0 0 L -1.00 2.50 L 5.00 0 L -1.00 -2.50 z" style="fill:rgb(153,153,153)"/>
</g></g>
<path d="M 1450.94 955.66 C 1471.95 949.51 1585.46 880.45 1600.58 864.62" style="stroke-width:1.00;stroke:rgb(153,153,153);fill:none"/> 
<!-- Arc:    30   23 -->
<g transform="translate(859.43 68.50)">
<g transform="rotate(294.17)">
<path d="M 0 0 L -1.00 2.50 L 5.00 0 L -1.00 -2.50 z" style="fill:rgb(153,153,153)"/>
</g></g>
<path d="M 610.84 371.02 C 650.64 342.54 839.20 113.07 859.43 68.50" style="stroke-width:1.00;stroke:rgb(153,153,153);fill:none"/> 
<!-- Arc:    19    4 -->
<g transform="translate(1692.04 166.62)">
<g transform="rotate(354.44)">
<path d="M 0 0 L -1.00 2.50 L 5.00 0 L -1.00 -2.50 z" style="fill:rgb(153,153,153)"/>
</g></g>
<path d="M 1274.99 95.64 C 1323.05 117.71 1639.39 171.54 1692.04 166.62" style="stroke-width:1.00;stroke:rgb(153,153,153);fill:none"/> 
<!-- Arc:     1   32 -->
<g transform="translate(109.66 677.81)">
<g transform="rotate(207.57)">
<path d="M 0 0 L -1.00 2.50 L 5.00 0 L -1.00 -2.50 z" style="fill:rgb(153,153,153)"/>
</g></g>
<path d="M 324.90 877.73 C 305.38 846.63 142.11 694.98 109.66 677.81" style="stroke-width:1.00;stroke:rgb(153,153,153);fill:none"/> 
<!-- Arc:    16   21 -->
<g transform="translate(333.91 180.67)">
<g transform="rotate(182.87)">
<path d="M 0 0 L -1.00 2.50 L 5.00 0 L -1.00 -2.50 z" style="fill:rgb(153,153,153)"/>
</g></g>
<path d="M 738.93 312.96 C 694.31 283.89 387.10 183.54 333.91 180.67" style="stroke-width:1.00;stroke:rgb(153,153,153);fill:none"/> 
<!-- Arc:    31   30 -->
<g transform="translate(594.81 372.68)">
<g transform="rotate(344.63)">
<path d="M 0 0 L -1.00 2.50 L 5.00 0 L -1.00 -2.50 z" style="fill:rgb(153,153,153)"/>
</g></g>
<path d="M 485.01 371.77 C 498.24 375.43 581.53 376.12 594.81 372.68" style="stroke-width:1.00;stroke:rgb(153,153,153);fill:none"/> 
<!-- Arc:    26   16 -->
<g transform="translate(728.16 300.98)">
<g transform="rotate(398.55)">
<path d="M 0 0 L -1.00 2.50 L 5.00 0 L -1.00 -2.50 z" style="fill:rgb(153,153,153)"/>
</g></g>
<path d="M 567.45 80.70 C 579.73 112.50 701.63 279.58 728.16 300.98" style="stroke-width:1.00;stroke:rgb(153,153,153);fill:none"/> 
<!-- Arc:     9   14 -->
<g transform="translate(591.68 913.19)">
<g transform="rotate(198.55)">
<path d="M 0 0 L -1.00 2.50 L 5.00 0 L -1.00 -2.50 z" style="fill:rgb(153,153,153)"/>
</g></g>
<path d="M 724.47 1003.20 C 711.35 988.04 610.63 919.76 591.68 913.19" style="stroke-width:1.00;stroke:rgb(153,153,153);fill:none"/> 
<!-- Arc:     2   14 -->
<g transform="translate(560.01 894.30)">
<g transform="rotate(383.22)">
<path d="M 0 0 L -1.00 2.50 L 5.00 0 L -1.00 -2.50 z" style="fill:rgb(153,153,153)"/>
</g></g>
<path d="M 295.44 683.88 C 320.58 717.85 521.26 877.45 560.01 894.30" style="stroke-width:1.00;stroke:rgb(153,153,153);fill:none"/> 
<!-- Arc:     2    1 -->
<g transform="translate(320.84 862.13)">
<g transform="rotate(426.38)">
<path d="M 0 0 L -1.00 2.50 L 5.00 0 L -1.00 -2.50 z" style="fill:rgb(153,153,153)"/>
</g></g>
<path d="M 295.44 683.88 C 292.74 706.22 312.00 841.43 320.84 862.13" style="stroke-width:1.00;stroke:rgb(153,153,153);fill:none"/> 
<!-- Arc:    27   31 -->
<g transform="translate(499.20 379.41)">
<g transform="rotate(199.15)">
<path d="M 0 0 L -1.00 2.50 L 5.00 0 L -1.00 -2.50 z" style="fill:rgb(153,153,153)"/>
</g></g>
<path d="M 848.85 618.53 C 814.37 578.35 549.16 396.97 499.20 379.41" style="stroke-width:1.00;stroke:rgb(153,153,153);fill:none"/> 
<!-- Arc:    26   23 -->
<g transform="translate(854.35 55.86)">
<g transform="rotate(339.73)">
<path d="M 0 0 L -1.00 2.50 L 5.00 0 L -1.00 -2.50 z" style="fill:rgb(153,153,153)"/>
</g></g>
<path d="M 567.45 80.70 C 602.90 86.99 820.51 68.14 854.35 55.86" style="stroke-width:1.00;stroke:rgb(153,153,153);fill:none"/> 
<!-- Arc:    26   21 -->
<g transform="translate(332.72 169.78)">
<g transform="rotate(503.85)">
<path d="M 0 0 L -1.00 2.50 L 5.00 0 L -1.00 -2.50 z" style="fill:rgb(153,153,153)"/>
</g></g>
<path d="M 567.45 80.70 C 536.23 83.86 358.18 151.43 332.72 169.78" style="stroke-width:1.00;stroke:rgb(153,153,153);fill:none"/> 
<!-- Arc:    12   17 -->
<g transform="translate(1435.02 958.35)">
<g transform="rotate(341.15)">
<path d="M 0 0 L -1.00 2.50 L 5.00 0 L -1.00 -2.50 z" style="fill:rgb(153,153,153)"/>
</g></g>
<path d="M 1140.43 976.56 C 1176.58 983.89 1400.04 970.08 1435.02 958.35" style="stroke-width:1.00;stroke:rgb(153,153,153);fill:none"/> 
<!-- Arc:    12    3 -->
<g transform="translate(908.16 518.78)">
<g transform="rotate(227.92)">
<path d="M 0 0 L -1.00 2.50 L 5.00 0 L -1.00 -2.50 z" style="fill:rgb(153,153,153)"/>
</g></g>
<path d="M 1140.43 976.56 C 1127.19 913.77 951.02 566.54 908.16 518.78" style="stroke-width:1.00;stroke:rgb(153,153,153);fill:none"/> 
<!-- Arc:     2   32 -->
<g transform="translate(112.91 667.83)">
<g transform="rotate(529.52)">
<path d="M 0 0 L -1.00 2.50 L 5.00 0 L -1.00 -2.50 z" style="fill:rgb(153,153,153)"/>
</g></g>
<path d="M 295.44 683.88 C 273.92 676.04 135.47 663.86 112.91 667.83" style="stroke-width:1.00;stroke:rgb(153,153,153);fill:none"/> 
<!-- Arc:     6   10 -->
<g transform="translate(1597.64 851.09)">
<g transform="rotate(363.77)">
<path d="M 0 0 L -1.00 2.50 L 5.00 0 L -1.00 -2.50 z" style="fill:rgb(153,153,153)"/>
</g></g>
<path d="M 1438.89 795.44 C 1456.26 807.30 1576.67 849.51 1597.64 851.09" style="stroke-width:1.00;stroke:rgb(153,153,153);fill:none"/> 
<!-- Arc:     6    5 -->
<g transform="translate(1129.66 629.34)">
<g transform="rotate(192.98)">
<path d="M 0 0 L -1.00 2.50 L 5.00 0 L -1.00 -2.50 z" style="fill:rgb(153,153,153)"/>
</g></g>
<path d="M 1438.89 795.44 C 1406.93 765.38 1172.37 639.39 1129.66 629.34" style="stroke-width:1.00;stroke:rgb(153,153,153);fill:none"/> 
<!-- Arc:    15   13 -->
<g transform="translate(517.53 533.83)">
<g transform="rotate(196.66)">
<path d="M 0 0 L -1.00 2.50 L 5.00 0 L -1.00 -2.50 z" style="fill:rgb(153,153,153)"/>
</g></g>
<path d="M 677.60 634.45 C 661.53 617.12 540.11 540.80 517.53 533.83" style="stroke-width:1.00;stroke:rgb(153,153,153);fill:none"/> 
<!-- Arc:     7   17 -->
<g transform="translate(1467.02 954.46)">
<g transform="rotate(526.81)">
<path d="M 0 0 L -1.00 2.50 L 5.00 0 L -1.00 -2.50 z" style="fill:rgb(153,153,153)"/>
</g></g>
<path d="M 1797.53 966.55 C 1758.01 954.39 1507.32 945.23 1467.02 954.46" style="stroke-width:1.00;stroke:rgb(153,153,153);fill:none"/> 
<!-- Arc:    18   24 -->
<g transform="translate(1460.12 225.81)">
<g transform="rotate(264.40)">
<path d="M 0 0 L -1.00 2.50 L 5.00 0 L -1.00 -2.50 z" style="fill:rgb(153,153,153)"/>
</g></g>
<path d="M 1431.48 388.96 C 1440.22 370.18 1461.94 246.44 1460.12 225.81" style="stroke-width:1.00;stroke:rgb(153,153,153);fill:none"/> 
<!-- Arc:    28    2 -->
<g transform="translate(311.64 688.95)">
<g transform="rotate(187.82)">
<path d="M 0 0 L -1.00 2.50 L 5.00 0 L -1.00 -2.50 z" style="fill:rgb(153,153,153)"/>
</g></g>
<path d="M 490.05 765.79 C 470.99 750.74 335.66 692.46 311.64 688.95" style="stroke-width:1.00;stroke:rgb(153,153,153);fill:none"/> 
<!-- Arc:    28   15 -->
<g transform="translate(665.39 644.97)">
<g transform="rotate(310.00)">
<path d="M 0 0 L -1.00 2.50 L 5.00 0 L -1.00 -2.50 z" style="fill:rgb(153,153,153)"/>
</g></g>
<path d="M 490.05 765.79 C 515.13 756.87 648.13 665.23 665.39 644.97" style="stroke-width:1.00;stroke:rgb(153,153,153);fill:none"/> 
<!-- Arc:    22    9 -->
<g transform="translate(740.48 1001.31)">
<g transform="rotate(524.06)">
<path d="M 0 0 L -1.00 2.50 L 5.00 0 L -1.00 -2.50 z" style="fill:rgb(153,153,153)"/>
</g></g>
<path d="M 926.66 999.86 C 904.13 994.01 762.91 995.11 740.48 1001.31" style="stroke-width:1.00;stroke:rgb(153,153,153);fill:none"/> 
<!-- Arc:    22   14 -->
<g transform="translate(592.01 907.23)">
<g transform="rotate(180.21)">
<path d="M 0 0 L -1.00 2.50 L 5.00 0 L -1.00 -2.50 z" style="fill:rgb(153,153,153)"/>
</g></g>
<path d="M 926.66 999.86 C 889.25 977.85 635.41 907.59 592.01 907.23" style="stroke-width:1.00;stroke:rgb(153,153,153);fill:none"/> 
<!-- Arc:    22   12 -->
<g transform="translate(1124.65 979.87)">
<g transform="rotate(338.77)">
<path d="M 0 0 L -1.00 2.50 L 5.00 0 L -1.00 -2.50 z" style="fill:rgb(153,153,153)"/>
</g></g>
<path d="M 926.66 999.86 C 951.21 1003.86 1101.39 988.69 1124.65 979.87" style="stroke-width:1.00;stroke:rgb(153,153,153);fill:none"/> 

<!-- Vertex:     1 -->
<ellipse cx="324.90" cy="877.73" rx="10.00" ry="10.00" style="fill:rgb(255,217,188);stroke:rgb(102,0,0);stroke-width:0.50;"/>
<text x="330.08" y="897.05" style="font-family:Arial;font-weight: bold;font-size:15px;fill:rgb(173,0,0)">z19</text>
<!-- Vertex:     2 -->
<g transform="translate(295.44 683.88)">
<path d="M -10.00 -10.00 L 10.00 -10.00 L 10.00 10.00 L -10.00 10.00 z" style="fill:rgb(255,217,188);stroke:rgb(102,0,0);stroke-width:0.50;"/>
</g>
<text x="300.62" y="703.20" style="font-family:Arial;font-weight: bold;font-size:15px;fill:rgb(173,0,0)">m28</text>
<!-- Vertex:     3 -->
<ellipse cx="899.43" cy="505.23" rx="10.00" ry="10.00" style="fill:rgb(255,217,188);stroke:rgb(102,0,0);stroke-width:0.50;"/>
<text x="904.61" y="524.55" style="font-family:Arial;font-weight: bold;font-size:15px;fill:rgb(173,0,0)">z3</text>
<!-- Vertex:     4 -->
<ellipse cx="1708.14" cy="167.57" rx="10.00" ry="10.00" style="fill:rgb(255,217,188);stroke:rgb(102,0,0);stroke-width:0.50;"/>
<text x="1713.32" y="186.89" style="font-family:Arial;font-weight: bold;font-size:15px;fill:rgb(173,0,0)">z10</text>
<!-- Vertex:     5 -->
<ellipse cx="1114.74" cy="623.24" rx="10.00" ry="10.00" style="fill:rgb(255,217,188);stroke:rgb(102,0,0);stroke-width:0.50;"/>
<text x="1119.91" y="642.56" style="font-family:Arial;font-weight: bold;font-size:15px;fill:rgb(173,0,0)">z7</text>
<!-- Vertex:     6 -->
<ellipse cx="1438.89" cy="795.44" rx="10.00" ry="10.00" style="fill:rgb(255,217,188);stroke:rgb(102,0,0);stroke-width:0.50;"/>
<text x="1444.07" y="814.76" style="font-family:Arial;font-weight: bold;font-size:15px;fill:rgb(173,0,0)">z30</text>
<!-- Vertex:     7 -->
<g transform="translate(1797.53 966.55)">
<path d="M -10.00 -10.00 L 10.00 -10.00 L 10.00 10.00 L -10.00 10.00 z" style="fill:rgb(255,217,188);stroke:rgb(102,0,0);stroke-width:0.50;"/>
</g>
<text x="1802.70" y="985.87" style="font-family:Arial;font-weight: bold;font-size:15px;fill:rgb(173,0,0)">m34</text>
<!-- Vertex:     8 -->
<ellipse cx="1286.31" cy="549.74" rx="10.00" ry="10.00" style="fill:rgb(255,217,188);stroke:rgb(102,0,0);stroke-width:0.50;"/>
<text x="1291.49" y="569.06" style="font-family:Arial;font-weight: bold;font-size:15px;fill:rgb(173,0,0)">z22</text>
<!-- Vertex:     9 -->
<ellipse cx="724.47" cy="1003.20" rx="10.00" ry="10.00" style="fill:rgb(255,217,188);stroke:rgb(102,0,0);stroke-width:0.50;"/>
<text x="729.65" y="1022.52" style="font-family:Arial;font-weight: bold;font-size:15px;fill:rgb(173,0,0)">z38</text>
<!-- Vertex:    10 -->
<ellipse cx="1613.33" cy="854.76" rx="10.00" ry="10.00" style="fill:rgb(255,217,188);stroke:rgb(102,0,0);stroke-width:0.50;"/>
<text x="1618.51" y="874.07" style="font-family:Arial;font-weight: bold;font-size:15px;fill:rgb(173,0,0)">z8</text>
<!-- Vertex:    11 -->
<ellipse cx="1581.43" cy="667.09" rx="10.00" ry="10.00" style="fill:rgb(255,217,188);stroke:rgb(102,0,0);stroke-width:0.50;"/>
<text x="1586.60" y="686.41" style="font-family:Arial;font-weight: bold;font-size:15px;fill:rgb(173,0,0)">z2</text>
<!-- Vertex:    12 -->
<ellipse cx="1140.43" cy="976.56" rx="10.00" ry="10.00" style="fill:rgb(255,217,188);stroke:rgb(102,0,0);stroke-width:0.50;"/>
<text x="1145.60" y="995.88" style="font-family:Arial;font-weight: bold;font-size:15px;fill:rgb(173,0,0)">z26</text>
<!-- Vertex:    13 -->
<ellipse cx="503.06" cy="526.74" rx="10.00" ry="10.00" style="fill:rgb(255,217,188);stroke:rgb(102,0,0);stroke-width:0.50;"/>
<text x="508.24" y="546.06" style="font-family:Arial;font-weight: bold;font-size:15px;fill:rgb(173,0,0)">z4</text>
<!-- Vertex:    14 -->
<g transform="translate(575.76 904.54)">
<path d="M -10.00 -10.00 L 10.00 -10.00 L 10.00 10.00 L -10.00 10.00 z" style="fill:rgb(255,217,188);stroke:rgb(102,0,0);stroke-width:0.50;"/>
</g>
<text x="580.93" y="923.86" style="font-family:Arial;font-weight: bold;font-size:15px;fill:rgb(173,0,0)">m18</text>
<!-- Vertex:    15 -->
<ellipse cx="677.60" cy="634.45" rx="10.00" ry="10.00" style="fill:rgb(255,217,188);stroke:rgb(102,0,0);stroke-width:0.50;"/>
<text x="682.78" y="653.77" style="font-family:Arial;font-weight: bold;font-size:15px;fill:rgb(173,0,0)">z31</text>
<!-- Vertex:    16 -->
<ellipse cx="738.93" cy="312.96" rx="10.00" ry="10.00" style="fill:rgb(255,217,188);stroke:rgb(102,0,0);stroke-width:0.50;"/>
<text x="744.11" y="332.28" style="font-family:Arial;font-weight: bold;font-size:15px;fill:rgb(173,0,0)">z16</text>
<!-- Vertex:    17 -->
<g transform="translate(1450.94 955.66)">
<path d="M -10.00 -10.00 L 10.00 -10.00 L 10.00 10.00 L -10.00 10.00 z" style="fill:rgb(255,217,188);stroke:rgb(102,0,0);stroke-width:0.50;"/>
</g>
<text x="1456.11" y="974.98" style="font-family:Arial;font-weight: bold;font-size:15px;fill:rgb(173,0,0)">m25</text>
<!-- Vertex:    18 -->
<ellipse cx="1431.48" cy="388.96" rx="10.00" ry="10.00" style="fill:rgb(255,217,188);stroke:rgb(102,0,0);stroke-width:0.50;"/>
<text x="1436.66" y="408.27" style="font-family:Arial;font-weight: bold;font-size:15px;fill:rgb(173,0,0)">z35</text>
<!-- Vertex:    19 -->
<ellipse cx="1274.99" cy="95.64" rx="10.00" ry="10.00" style="fill:rgb(255,217,188);stroke:rgb(102,0,0);stroke-width:0.50;"/>
<text x="1280.17" y="114.96" style="font-family:Arial;font-weight: bold;font-size:15px;fill:rgb(173,0,0)">z20</text>
<!-- Vertex:    20 -->
<g transform="translate(638.28 729.77)">
<path d="M -10.00 -10.00 L 10.00 -10.00 L 10.00 10.00 L -10.00 10.00 z" style="fill:rgb(255,217,188);stroke:rgb(102,0,0);stroke-width:0.50;"/>
</g>
<text x="643.45" y="749.09" style="font-family:Arial;font-weight: bold;font-size:15px;fill:rgb(173,0,0)">m41</text>
<!-- Vertex:    21 -->
<g transform="translate(317.67 177.24)">
<path d="M -10.00 -10.00 L 10.00 -10.00 L 10.00 10.00 L -10.00 10.00 z" style="fill:rgb(255,217,188);stroke:rgb(102,0,0);stroke-width:0.50;"/>
</g>
<text x="322.85" y="196.56" style="font-family:Arial;font-weight: bold;font-size:15px;fill:rgb(173,0,0)">m14</text>
<!-- Vertex:    22 -->
<ellipse cx="926.66" cy="999.86" rx="10.00" ry="10.00" style="fill:rgb(255,217,188);stroke:rgb(102,0,0);stroke-width:0.50;"/>
<text x="931.83" y="1019.18" style="font-family:Arial;font-weight: bold;font-size:15px;fill:rgb(173,0,0)">z40</text>
<!-- Vertex:    23 -->
<g transform="translate(870.21 52.80)">
<path d="M -10.00 -10.00 L 10.00 -10.00 L 10.00 10.00 L -10.00 10.00 z" style="fill:rgb(255,217,188);stroke:rgb(102,0,0);stroke-width:0.50;"/>
</g>
<text x="875.38" y="72.12" style="font-family:Arial;font-weight: bold;font-size:15px;fill:rgb(173,0,0)">m9</text>
<!-- Vertex:    24 -->
<ellipse cx="1461.08" cy="209.72" rx="10.00" ry="10.00" style="fill:rgb(255,217,188);stroke:rgb(102,0,0);stroke-width:0.50;"/>
<text x="1466.25" y="229.04" style="font-family:Arial;font-weight: bold;font-size:15px;fill:rgb(173,0,0)">z27</text>
<!-- Vertex:    25 -->
<g transform="translate(1142.08 880.94)">
<path d="M -10.00 -10.00 L 10.00 -10.00 L 10.00 10.00 L -10.00 10.00 z" style="fill:rgb(255,217,188);stroke:rgb(102,0,0);stroke-width:0.50;"/>
</g>
<text x="1147.26" y="900.26" style="font-family:Arial;font-weight: bold;font-size:15px;fill:rgb(173,0,0)">m32</text>
<!-- Vertex:    26 -->
<g transform="translate(567.45 80.70)">
<path d="M -10.00 -10.00 L 10.00 -10.00 L 10.00 10.00 L -10.00 10.00 z" style="fill:rgb(255,217,188);stroke:rgb(102,0,0);stroke-width:0.50;"/>
</g>
<text x="572.63" y="100.02" style="font-family:Arial;font-weight: bold;font-size:15px;fill:rgb(173,0,0)">m24</text>
<!-- Vertex:    27 -->
<ellipse cx="848.85" cy="618.53" rx="10.00" ry="10.00" style="fill:rgb(255,217,188);stroke:rgb(102,0,0);stroke-width:0.50;"/>
<text x="854.02" y="637.85" style="font-family:Arial;font-weight: bold;font-size:15px;fill:rgb(173,0,0)">z23</text>
<!-- Vertex:    28 -->
<ellipse cx="490.05" cy="765.79" rx="10.00" ry="10.00" style="fill:rgb(255,217,188);stroke:rgb(102,0,0);stroke-width:0.50;"/>
<text x="495.23" y="785.10" style="font-family:Arial;font-weight: bold;font-size:15px;fill:rgb(173,0,0)">z37</text>
<!-- Vertex:    29 -->
<ellipse cx="1039.44" cy="249.36" rx="10.00" ry="10.00" style="fill:rgb(255,217,188);stroke:rgb(102,0,0);stroke-width:0.50;"/>
<text x="1044.62" y="268.68" style="font-family:Arial;font-weight: bold;font-size:15px;fill:rgb(173,0,0)">z12</text>
<!-- Vertex:    30 -->
<g transform="translate(610.84 371.02)">
<path d="M -10.00 -10.00 L 10.00 -10.00 L 10.00 10.00 L -10.00 10.00 z" style="fill:rgb(255,217,188);stroke:rgb(102,0,0);stroke-width:0.50;"/>
</g>
<text x="616.02" y="390.34" style="font-family:Arial;font-weight: bold;font-size:15px;fill:rgb(173,0,0)">m15</text>
<!-- Vertex:    31 -->
<ellipse cx="485.01" cy="371.77" rx="10.00" ry="10.00" style="fill:rgb(255,217,188);stroke:rgb(102,0,0);stroke-width:0.50;"/>
<text x="490.18" y="391.09" style="font-family:Arial;font-weight: bold;font-size:15px;fill:rgb(173,0,0)">z21</text>
<!-- Vertex:    32 -->
<ellipse cx="96.80" cy="668.10" rx="10.00" ry="10.00" style="fill:rgb(255,217,188);stroke:rgb(102,0,0);stroke-width:0.50;"/>
<text x="101.98" y="687.41" style="font-family:Arial;font-weight: bold;font-size:15px;fill:rgb(173,0,0)">z11</text>
</g>         <!-- Layer Network -->
</svg>
