<?xml version="1.0" encoding="UTF-8"?>
<!-- Title: 8. Extracting N6 according to C5 [1] (15) -->
<!-- Creator: Pajek 6.01: http://mrvar.fdv.uni-lj.si/pajek -->
<!-- CreationDate: 03-30-2025, 19:27:30 -->
<svg xml:space="preserve" viewBox="0 0 1534 814" xmlns="http://www.w3.org/2000/svg" xmlns:xlink="http://www.w3.org/1999/xlink" xmlns:inkscape="http://www.inkscape.org/namespaces/inkscape">
<title>8. Extracting N6 according to C5 [1] (15)</title>
<g inkscape:groupmode="layer" id="PajekSig" inkscape:label="PajekSignature">
<g transform="translate(3 796)">
<g transform="scale(0.1)">
<g transform="matrix(1 0 0 -1 0 96)">
<path d="M   7.67  49.98 L  31.76  72.76 L  46.91  78.63
         L  57.23  80.49 M  72.86  65.23 L  65.73  83.25
         L  57.06  75.49 L  56.75  68.65 M  76.27  68.03
         L  75.65  84.50 L  93.92  91.02 L 107.24  74.87
         M  80.29  67.72 L  89.28  84.81 L 104.77  81.70
         L 116.23  73.31 L 121.18  59.33 M  56.75  81.08
         L  71.31  64.30"
         style="fill:none; stroke:saddlebrown; stroke-width:5;"/>
<path d="M  86.18  70.21 L  91.45  73.00 L  95.78  69.58
         M  91.14  60.88 L  96.09  62.75 L  98.26  59.33"
         style="fill:none; stroke:saddlebrown; stroke-width:1.5;"/>
<path d="M  81.07  49.08 L  87.81  49.08 L  93.30  54.38
         L  93.30  60.88 L  93.30  67.39 L  87.81  72.69
         L  81.07  72.69 L  74.33  72.69 L  68.83  67.39
         L  68.83  60.88 L  68.83  54.38 L  74.33  49.08
         L  81.07  49.08 z"
         style="fill:maroon; stroke:saddlebrown; stroke-width:1;"/>
<path d="M  54.63  37.53 L  68.53  43.56 L  75.39  55.85
         L  69.90  65.35 L  64.41  72.86 L  48.60  74.06
         L  34.71  68.04 L  20.81  55.02 L  15.95  40.72
         L  17.44  33.22 L  24.92  28.72 L  40.73  30.51
         L  54.63  37.53 z"
         style="fill:maroon; stroke:saddlebrown; stroke-width:1;" />
<path d="M  77.82  50.63 L 103.84  59.33 L 131.10  43.80
         L 139.46  27.95 L 139.15  15.83 M  35.99   5.27
         L  47.15  32.92 L  61.71  50.01 L  70.07  46.90
         L  82.77  45.04 L  83.39  27.02 L  65.42  12.11
         M  68.52  50.63 L  91.14  49.39 L 103.53  43.17
         L 117.16  22.67 L 115.30   8.38"
         style="fill:none; stroke:saddlebrown; stroke-width:5;"/>
<path d="M  41.57  54.98 L  60.16  64.61 M  52.41  66.17
         L  57.99  57.47"
         style="fill:none; stroke:white; stroke-width:5;"/>
</g>
</g>
<animateMotion dur="20s" path="M3 0 L1516 0" begin="120s" fill="freeze"/>
</g>
<g transform="translate(3 796)">
<g transform="scale(0.1)">
<text x="5" y="140" style="font-family:Brush Script MT;font-size:75px;fill:green;">Pajek</text>
</g>
<animateMotion dur="0.1s" path="M3 0 L1516 0" begin="120s" fill="freeze"/>
</g>
</g>      <!-- Layer Signature -->

<g inkscape:groupmode="layer" id="PajekNet" inkscape:label="PajekNetwork">

<!-- Arc:     6   15 -->
<g transform="translate(924.38 723.11)">
<g transform="rotate(496.75)">
<path d="M 0 0 L -1.00 2.50 L 5.00 0 L -1.00 -2.50 z" style="fill:rgb(153,153,153)"/>
</g></g>
<line x1="1382.42" y1="292.18" x2="924.38" y2="723.11" style="stroke-width:1.00;stroke:rgb(153,153,153)"/>
<!-- Arc:     6   14 -->
<g transform="translate(551.21 54.07)">
<g transform="rotate(195.98)">
<path d="M 0 0 L -1.00 2.50 L 5.00 0 L -1.00 -2.50 z" style="fill:rgb(153,153,153)"/>
</g></g>
<line x1="1382.42" y1="292.18" x2="551.21" y2="54.07" style="stroke-width:1.00;stroke:rgb(153,153,153)"/>
<!-- Arc:    13   15 -->
<g transform="translate(922.71 721.56)">
<g transform="rotate(488.60)">
<path d="M 0 0 L -1.00 2.50 L 5.00 0 L -1.00 -2.50 z" style="fill:rgb(153,153,153)"/>
</g></g>
<line x1="1261.15" y1="297.57" x2="922.71" y2="721.56" style="stroke-width:1.00;stroke:rgb(153,153,153)"/>
<!-- Arc:    13   14 -->
<g transform="translate(550.96 54.87)">
<g transform="rotate(198.87)">
<path d="M 0 0 L -1.00 2.50 L 5.00 0 L -1.00 -2.50 z" style="fill:rgb(153,153,153)"/>
</g></g>
<line x1="1261.15" y1="297.57" x2="550.96" y2="54.87" style="stroke-width:1.00;stroke:rgb(153,153,153)"/>
<!-- Arc:     5   15 -->
<g transform="translate(899.70 724.23)">
<g transform="rotate(397.83)">
<path d="M 0 0 L -1.00 2.50 L 5.00 0 L -1.00 -2.50 z" style="fill:rgb(153,153,153)"/>
</g></g>
<line x1="570.96" y1="468.99" x2="899.70" y2="724.23" style="stroke-width:1.00;stroke:rgb(153,153,153)"/>
<!-- Arc:     5   14 -->
<g transform="translate(536.98 65.78)">
<g transform="rotate(265.18)">
<path d="M 0 0 L -1.00 2.50 L 5.00 0 L -1.00 -2.50 z" style="fill:rgb(153,153,153)"/>
</g></g>
<line x1="570.96" y1="468.99" x2="536.98" y2="65.78" style="stroke-width:1.00;stroke:rgb(153,153,153)"/>
<!-- Arc:     2   15 -->
<g transform="translate(911.37 718.01)">
<g transform="rotate(445.86)">
<path d="M 0 0 L -1.00 2.50 L 5.00 0 L -1.00 -2.50 z" style="fill:rgb(153,153,153)"/>
</g></g>
<line x1="884.22" y1="342.85" x2="911.37" y2="718.01" style="stroke-width:1.00;stroke:rgb(153,153,153)"/>
<!-- Arc:     2   14 -->
<g transform="translate(548.03 60.05)">
<g transform="rotate(220.07)">
<path d="M 0 0 L -1.00 2.50 L 5.00 0 L -1.00 -2.50 z" style="fill:rgb(153,153,153)"/>
</g></g>
<line x1="884.22" y1="342.85" x2="548.03" y2="60.05" style="stroke-width:1.00;stroke:rgb(153,153,153)"/>
<!-- Arc:     7   14 -->
<g transform="translate(550.33 56.42)">
<g transform="rotate(204.60)">
<path d="M 0 0 L -1.00 2.50 L 5.00 0 L -1.00 -2.50 z" style="fill:rgb(153,153,153)"/>
</g></g>
<line x1="1093.40" y1="305.12" x2="550.33" y2="56.42" style="stroke-width:1.00;stroke:rgb(153,153,153)"/>
<!-- Arc:     7   15 -->
<g transform="translate(918.85 719.25)">
<g transform="rotate(472.85)">
<path d="M 0 0 L -1.00 2.50 L 5.00 0 L -1.00 -2.50 z" style="fill:rgb(153,153,153)"/>
</g></g>
<line x1="1093.40" y1="305.12" x2="918.85" y2="719.25" style="stroke-width:1.00;stroke:rgb(153,153,153)"/>
<!-- Arc:     4   15 -->
<g transform="translate(897.16 728.90)">
<g transform="rotate(379.29)">
<path d="M 0 0 L -1.00 2.50 L 5.00 0 L -1.00 -2.50 z" style="fill:rgb(153,153,153)"/>
</g></g>
<line x1="339.54" y1="533.68" x2="897.16" y2="728.90" style="stroke-width:1.00;stroke:rgb(153,153,153)"/>
<!-- Arc:     4   14 -->
<g transform="translate(529.49 64.66)">
<g transform="rotate(292.05)">
<path d="M 0 0 L -1.00 2.50 L 5.00 0 L -1.00 -2.50 z" style="fill:rgb(153,153,153)"/>
</g></g>
<line x1="339.54" y1="533.68" x2="529.49" y2="64.66" style="stroke-width:1.00;stroke:rgb(153,153,153)"/>
<!-- Arc:    11   14 -->
<g transform="translate(543.19 63.96)">
<g transform="rotate(242.26)">
<path d="M 0 0 L -1.00 2.50 L 5.00 0 L -1.00 -2.50 z" style="fill:rgb(153,153,153)"/>
</g></g>
<line x1="720.52" y1="401.07" x2="543.19" y2="63.96" style="stroke-width:1.00;stroke:rgb(153,153,153)"/>
<!-- Arc:    11   15 -->
<g transform="translate(904.40 720.14)">
<g transform="rotate(420.05)">
<path d="M 0 0 L -1.00 2.50 L 5.00 0 L -1.00 -2.50 z" style="fill:rgb(153,153,153)"/>
</g></g>
<line x1="720.52" y1="401.07" x2="904.40" y2="720.14" style="stroke-width:1.00;stroke:rgb(153,153,153)"/>
<!-- Arc:     1   15 -->
<g transform="translate(915.85 718.31)">
<g transform="rotate(461.61)">
<path d="M 0 0 L -1.00 2.50 L 5.00 0 L -1.00 -2.50 z" style="fill:rgb(153,153,153)"/>
</g></g>
<line x1="997.40" y1="321.29" x2="915.85" y2="718.31" style="stroke-width:1.00;stroke:rgb(153,153,153)"/>
<!-- Arc:     1   14 -->
<g transform="translate(549.63 57.76)">
<g transform="rotate(210.48)">
<path d="M 0 0 L -1.00 2.50 L 5.00 0 L -1.00 -2.50 z" style="fill:rgb(153,153,153)"/>
</g></g>
<line x1="997.40" y1="321.29" x2="549.63" y2="57.76" style="stroke-width:1.00;stroke:rgb(153,153,153)"/>
<!-- Arc:    10   15 -->
<g transform="translate(896.56 731.15)">
<g transform="rotate(370.66)">
<path d="M 0 0 L -1.00 2.50 L 5.00 0 L -1.00 -2.50 z" style="fill:rgb(153,153,153)"/>
</g></g>
<line x1="165.21" y1="593.51" x2="896.56" y2="731.15" style="stroke-width:1.00;stroke:rgb(153,153,153)"/>
<!-- Arc:    10   14 -->
<g transform="translate(526.48 63.05)">
<g transform="rotate(304.26)">
<path d="M 0 0 L -1.00 2.50 L 5.00 0 L -1.00 -2.50 z" style="fill:rgb(153,153,153)"/>
</g></g>
<line x1="165.21" y1="593.51" x2="526.48" y2="63.05" style="stroke-width:1.00;stroke:rgb(153,153,153)"/>
<!-- Arc:     9   15 -->
<g transform="translate(902.05 721.78)">
<g transform="rotate(409.79)">
<path d="M 0 0 L -1.00 2.50 L 5.00 0 L -1.00 -2.50 z" style="fill:rgb(153,153,153)"/>
</g></g>
<line x1="652.81" y1="426.95" x2="902.05" y2="721.78" style="stroke-width:1.00;stroke:rgb(153,153,153)"/>
<!-- Arc:     9   14 -->
<g transform="translate(540.36 65.13)">
<g transform="rotate(252.74)">
<path d="M 0 0 L -1.00 2.50 L 5.00 0 L -1.00 -2.50 z" style="fill:rgb(153,153,153)"/>
</g></g>
<line x1="652.81" y1="426.95" x2="540.36" y2="65.13" style="stroke-width:1.00;stroke:rgb(153,153,153)"/>
<!-- Arc:    12   15 -->
<g transform="translate(896.36 732.47)">
<g transform="rotate(366.44)">
<path d="M 0 0 L -1.00 2.50 L 5.00 0 L -1.00 -2.50 z" style="fill:rgb(153,153,153)"/>
</g></g>
<line x1="52.55" y1="637.18" x2="896.36" y2="732.47" style="stroke-width:1.00;stroke:rgb(153,153,153)"/>
<!-- Arc:    12   14 -->
<g transform="translate(525.32 62.19)">
<g transform="rotate(309.43)">
<path d="M 0 0 L -1.00 2.50 L 5.00 0 L -1.00 -2.50 z" style="fill:rgb(153,153,153)"/>
</g></g>
<line x1="52.55" y1="637.18" x2="525.32" y2="62.19" style="stroke-width:1.00;stroke:rgb(153,153,153)"/>
<!-- Arc:     8   15 -->
<g transform="translate(898.43 726.11)">
<g transform="rotate(389.77)">
<path d="M 0 0 L -1.00 2.50 L 5.00 0 L -1.00 -2.50 z" style="fill:rgb(153,153,153)"/>
</g></g>
<line x1="465.86" y1="478.70" x2="898.43" y2="726.11" style="stroke-width:1.00;stroke:rgb(153,153,153)"/>
<!-- Arc:     8   14 -->
<g transform="translate(533.02 65.64)">
<g transform="rotate(279.24)">
<path d="M 0 0 L -1.00 2.50 L 5.00 0 L -1.00 -2.50 z" style="fill:rgb(153,153,153)"/>
</g></g>
<line x1="465.86" y1="478.70" x2="533.02" y2="65.64" style="stroke-width:1.00;stroke:rgb(153,153,153)"/>
<!-- Arc:     3   15 -->
<g transform="translate(908.08 718.58)">
<g transform="rotate(434.41)">
<path d="M 0 0 L -1.00 2.50 L 5.00 0 L -1.00 -2.50 z" style="fill:rgb(153,153,153)"/>
</g></g>
<line x1="810.45" y1="368.73" x2="908.08" y2="718.58" style="stroke-width:1.00;stroke:rgb(153,153,153)"/>
<!-- Arc:     3   14 -->
<g transform="translate(546.23 61.88)">
<g transform="rotate(229.27)">
<path d="M 0 0 L -1.00 2.50 L 5.00 0 L -1.00 -2.50 z" style="fill:rgb(153,153,153)"/>
</g></g>
<line x1="810.45" y1="368.73" x2="546.23" y2="61.88" style="stroke-width:1.00;stroke:rgb(153,153,153)"/>

<!-- Vertex:     1 -->
<ellipse cx="997.40" cy="321.29" rx="10.00" ry="10.00" style="fill:rgb(255,217,188);stroke:rgb(102,0,0);stroke-width:0.50;"/>
<text x="1002.58" y="340.61" style="font-family:Arial;font-weight: bold;font-size:15px;fill:rgb(173,0,0)">alliterative</text>
<!-- Vertex:     2 -->
<ellipse cx="884.22" cy="342.85" rx="10.00" ry="10.00" style="fill:rgb(255,217,188);stroke:rgb(102,0,0);stroke-width:0.50;"/>
<text x="889.40" y="362.17" style="font-family:Arial;font-weight: bold;font-size:15px;fill:rgb(173,0,0)">feigned</text>
<!-- Vertex:     3 -->
<ellipse cx="810.45" cy="368.73" rx="10.00" ry="10.00" style="fill:rgb(255,217,188);stroke:rgb(102,0,0);stroke-width:0.50;"/>
<text x="815.63" y="388.04" style="font-family:Arial;font-weight: bold;font-size:15px;fill:rgb(173,0,0)">heterogeneous</text>
<!-- Vertex:     4 -->
<ellipse cx="339.54" cy="533.68" rx="10.00" ry="10.00" style="fill:rgb(255,217,188);stroke:rgb(102,0,0);stroke-width:0.50;"/>
<text x="344.72" y="553.00" style="font-family:Arial;font-weight: bold;font-size:15px;fill:rgb(173,0,0)">incesttuous</text>
<!-- Vertex:     5 -->
<ellipse cx="570.96" cy="468.99" rx="10.00" ry="10.00" style="fill:rgb(255,217,188);stroke:rgb(102,0,0);stroke-width:0.50;"/>
<text x="576.13" y="488.31" style="font-family:Arial;font-weight: bold;font-size:15px;fill:rgb(173,0,0)">learned</text>
<!-- Vertex:     6 -->
<ellipse cx="1382.42" cy="292.18" rx="10.00" ry="10.00" style="fill:rgb(255,217,188);stroke:rgb(102,0,0);stroke-width:0.50;"/>
<text x="1387.60" y="311.50" style="font-family:Arial;font-weight: bold;font-size:15px;fill:rgb(173,0,0)">ominous</text>
<!-- Vertex:     7 -->
<ellipse cx="1093.40" cy="305.12" rx="10.00" ry="10.00" style="fill:rgb(255,217,188);stroke:rgb(102,0,0);stroke-width:0.50;"/>
<text x="1098.58" y="324.43" style="font-family:Arial;font-weight: bold;font-size:15px;fill:rgb(173,0,0)">parasite</text>
<!-- Vertex:     8 -->
<ellipse cx="465.86" cy="478.70" rx="10.00" ry="10.00" style="fill:rgb(255,217,188);stroke:rgb(102,0,0);stroke-width:0.50;"/>
<text x="471.04" y="498.02" style="font-family:Arial;font-weight: bold;font-size:15px;fill:rgb(173,0,0)">pleasing</text>
<!-- Vertex:     9 -->
<ellipse cx="652.81" cy="426.95" rx="10.00" ry="10.00" style="fill:rgb(255,217,188);stroke:rgb(102,0,0);stroke-width:0.50;"/>
<text x="657.99" y="446.26" style="font-family:Arial;font-weight: bold;font-size:15px;fill:rgb(173,0,0)">rhetorical</text>
<!-- Vertex:    10 -->
<ellipse cx="165.21" cy="593.51" rx="10.00" ry="10.00" style="fill:rgb(255,217,188);stroke:rgb(102,0,0);stroke-width:0.50;"/>
<text x="170.38" y="612.82" style="font-family:Arial;font-weight: bold;font-size:15px;fill:rgb(173,0,0)">tedious</text>
<!-- Vertex:    11 -->
<ellipse cx="720.52" cy="401.07" rx="10.00" ry="10.00" style="fill:rgb(255,217,188);stroke:rgb(102,0,0);stroke-width:0.50;"/>
<text x="725.69" y="420.39" style="font-family:Arial;font-weight: bold;font-size:15px;fill:rgb(173,0,0)">unbecoming</text>
<!-- Vertex:    12 -->
<ellipse cx="52.55" cy="637.18" rx="10.00" ry="10.00" style="fill:rgb(255,217,188);stroke:rgb(102,0,0);stroke-width:0.50;"/>
<text x="57.72" y="656.50" style="font-family:Arial;font-weight: bold;font-size:15px;fill:rgb(173,0,0)">usual</text>
<!-- Vertex:    13 -->
<ellipse cx="1261.15" cy="297.57" rx="10.00" ry="10.00" style="fill:rgb(255,217,188);stroke:rgb(102,0,0);stroke-width:0.50;"/>
<text x="1266.33" y="316.89" style="font-family:Arial;font-weight: bold;font-size:15px;fill:rgb(173,0,0)">victorious</text>
<!-- Vertex:    14 -->
<ellipse cx="535.59" cy="49.59" rx="10.00" ry="10.00" style="fill:rgb(255,217,188);stroke:rgb(102,0,0);stroke-width:0.50;"/>
<text x="540.76" y="68.91" style="font-family:Arial;font-weight: bold;font-size:15px;fill:rgb(173,0,0)">adv</text>
<!-- Vertex:    15 -->
<ellipse cx="912.52" cy="734.22" rx="10.00" ry="10.00" style="fill:rgb(255,217,188);stroke:rgb(102,0,0);stroke-width:0.50;"/>
<text x="917.69" y="753.54" style="font-family:Arial;font-weight: bold;font-size:15px;fill:rgb(173,0,0)">ly</text>
</g>         <!-- Layer Network -->
</svg>
